<?xml version="1.0" standalone="no"?>
<!DOCTYPE svg PUBLIC "-//W3C//DTD SVG 20010904//EN"
 "http://www.w3.org/TR/2001/REC-SVG-20010904/DTD/svg10.dtd">
<svg version="1.0" xmlns="http://www.w3.org/2000/svg"
 width="5209.000000pt" height="5210.000000pt" viewBox="0 0 5209.000000 5210.000000"
 preserveAspectRatio="xMidYMid meet">
<metadata>
Created by potrace 1.16, written by Peter Selinger 2001-2019
</metadata>
<g transform="translate(0.000000,5210.000000) scale(0.100000,-0.100000)"
fill="#000000" stroke="none">
<path d="M33780 45109 c-784 -39 -1572 -499 -2088 -1217 -87 -120 -216 -345
-277 -480 -73 -160 -155 -410 -188 -572 -15 -69 -42 -224 -61 -345 -44 -270
-91 -564 -156 -965 -28 -168 -75 -458 -105 -645 -30 -187 -57 -350 -60 -362
l-5 -23 -1348 0 c-1126 0 -1367 -2 -1459 -15 -514 -67 -992 -298 -1375 -664
l-105 -100 -2139 -4 c-2127 -3 -2140 -3 -2234 -24 -296 -65 -551 -203 -768
-416 -257 -252 -412 -553 -466 -907 -16 -101 -226 -1400 -301 -1860 -25 -151
-104 -637 -175 -1080 -72 -443 -144 -886 -160 -985 -16 -99 -63 -391 -105
-650 -42 -258 -94 -578 -115 -710 -22 -132 -73 -451 -115 -710 -158 -978 -154
-958 -176 -973 -77 -54 -185 -151 -315 -285 -173 -176 -222 -208 -331 -215
-61 -4 -148 12 -158 29 -3 4 29 77 71 162 89 181 99 227 62 292 -43 74 -138
105 -214 69 -18 -9 -109 -95 -200 -190 -124 -130 -171 -173 -183 -168 -9 4
-113 40 -231 80 -473 161 -988 267 -1530 315 -74 6 -138 16 -142 22 -3 6 -9
38 -13 71 -8 74 -33 251 -41 287 -5 24 -1 27 43 38 59 15 253 90 319 124 83
42 124 105 124 188 0 47 -69 293 -125 444 -21 55 -40 114 -42 132 -5 31 -3 33
53 60 72 34 104 77 104 140 0 38 -12 63 -89 186 -116 186 -180 302 -252 452
-83 175 -83 168 -13 194 31 12 127 33 213 46 183 28 247 47 295 87 86 71 87
272 2 483 -45 110 -96 187 -181 271 -106 105 -221 155 -361 156 -69 0 -92 -9
-150 -63 -48 -43 -95 -59 -178 -59 -118 0 -402 59 -681 143 -174 52 -269 57
-324 18 -52 -37 -73 -96 -78 -220 -5 -136 -9 -151 -33 -151 -11 0 -98 22 -194
49 -223 64 -316 81 -430 81 -188 0 -291 -46 -437 -190 -76 -76 -104 -112 -134
-173 -50 -101 -54 -148 -20 -261 66 -227 118 -311 314 -511 81 -82 161 -170
178 -195 48 -72 98 -178 148 -314 25 -69 60 -159 79 -199 98 -215 232 -343
371 -355 l50 -4 61 -512 c53 -451 58 -512 45 -518 -9 -3 -126 -23 -261 -43
-468 -69 -1062 -200 -1470 -323 -91 -28 -173 -54 -182 -57 -14 -5 -18 -2 -18
13 0 38 18 67 89 145 113 124 114 143 15 251 -75 80 -108 133 -139 219 l-22
60 28 66 c101 241 22 506 -221 734 -136 128 -290 211 -489 265 -84 22 -116 25
-261 25 -154 1 -220 -7 -322 -39 -15 -4 -15 0 2 54 42 134 50 319 19 415 -49
149 -285 216 -515 146 -191 -58 -341 -201 -360 -343 -16 -117 109 -289 304
-417 40 -26 88 -53 107 -59 l35 -11 -123 -122 c-68 -67 -195 -207 -283 -312
-242 -286 -349 -387 -486 -456 -163 -83 -344 -79 -478 9 -30 20 -197 178 -370
352 -475 475 -1049 1012 -1290 1205 -132 107 -287 207 -378 247 -72 31 -84 33
-187 32 -125 0 -199 -17 -314 -70 -409 -189 -826 -734 -961 -1258 -87 -339
-50 -577 114 -741 133 -132 339 -209 611 -230 44 -3 98 -8 121 -11 l40 -5
-136 -137 c-100 -101 -156 -167 -212 -252 -164 -246 -262 -499 -313 -800 -20
-119 -28 -385 -14 -510 62 -589 362 -1046 832 -1270 84 -40 171 -70 345 -116
8 -3 -9 -32 -46 -82 -228 -299 -427 -669 -577 -1072 -270 -727 -409 -1746
-320 -2357 72 -492 294 -981 587 -1289 46 -48 78 -74 92 -74 16 0 63 43 155
140 l133 141 117 -173 c150 -222 278 -402 302 -424 15 -13 25 -15 43 -8 13 5
123 119 246 254 122 135 232 255 244 267 l21 22 103 -129 103 -130 -45 -192
c-74 -315 -156 -763 -156 -855 0 -49 25 -58 117 -39 109 23 105 26 73 -56
-133 -347 -247 -856 -325 -1447 -32 -244 -32 -275 -3 -295 35 -25 56 -2 116
119 29 59 55 105 58 103 3 -3 -9 -86 -25 -184 -119 -702 -222 -1604 -276
-2409 -3 -44 -8 -105 -10 -135 -4 -56 -10 -147 -20 -300 -3 -47 -7 -119 -10
-160 -3 -41 -7 -129 -10 -195 -3 -66 -8 -154 -10 -195 -2 -41 -7 -149 -10
-240 -4 -91 -8 -187 -10 -215 -2 -27 -7 -156 -10 -285 -4 -129 -8 -269 -10
-310 -25 -469 -25 -3109 0 -3635 2 -44 6 -199 10 -345 4 -146 8 -292 10 -325
2 -33 7 -148 10 -255 7 -235 33 -815 41 -920 7 -98 15 -104 146 -120 57 -6
109 -14 116 -16 12 -4 12 -6 -3 -369 -2 -55 -7 -197 -10 -315 -4 -118 -8 -228
-10 -245 -2 -16 -4 -72 -4 -122 l-1 -93 -43 0 c-36 0 -48 -6 -74 -32 -58 -61
-154 -222 -253 -423 -148 -299 -269 -622 -401 -1060 -54 -177 -60 -207 -56
-265 8 -118 75 -223 179 -276 95 -48 300 -69 683 -69 325 1 617 27 721 66 101
38 189 123 225 219 24 63 24 99 -1 230 -72 385 -92 752 -74 1335 l7 211 -26
29 c-21 24 -32 30 -66 29 -23 -1 -41 -1 -41 0 0 12 161 1120 162 1121 2 2 57
8 123 15 173 17 317 45 330 64 7 9 14 87 19 198 6 171 20 398 31 513 125 1300
418 2828 946 4935 130 520 347 1351 355 1359 5 5 -1 25 118 -409 257 -941 601
-2068 1066 -3497 l118 -361 -59 -929 c-32 -510 -81 -1270 -108 -1688 -36 -540
-47 -761 -39 -766 6 -4 37 -12 69 -19 33 -7 59 -15 59 -19 0 -11 -161 -906
-164 -908 -1 -2 -20 6 -41 17 -65 33 -105 26 -331 -56 -115 -42 -404 -141
-642 -220 -468 -156 -670 -228 -851 -306 -492 -210 -698 -447 -652 -748 25
-158 108 -272 231 -315 144 -51 1280 -83 1955 -55 655 27 1237 79 1348 120
120 45 230 155 277 277 43 111 34 401 -31 943 -11 91 -25 179 -30 197 -13 40
-67 89 -109 98 -31 7 -32 8 -26 49 4 22 24 124 46 226 22 102 56 264 75 360
20 96 38 181 41 188 2 8 27 12 78 12 l74 0 30 98 c17 53 49 160 73 237 23 77
45 143 48 147 7 8 217 -779 246 -922 27 -128 45 -289 45 -401 l0 -106 -31 -7
c-48 -9 -101 -71 -137 -157 -101 -246 -148 -563 -140 -964 3 -186 6 -215 24
-255 27 -57 67 -98 124 -123 43 -20 70 -21 700 -25 569 -4 1931 10 2195 23 50
2 157 7 238 10 100 4 161 11 188 21 81 33 150 150 134 225 l-7 29 274 0 273 0
41 -53 c76 -99 234 -178 426 -214 128 -24 455 -24 584 0 176 32 322 106 429
216 l49 51 518 0 517 0 80 -64 c197 -159 417 -237 519 -183 47 25 90 91 115
174 l21 73 1196 0 1196 0 11 -111 c13 -129 39 -192 93 -224 34 -19 51 -20 535
-20 454 0 782 6 1185 20 217 8 269 14 314 34 91 40 156 142 156 244 l0 57
2738 0 2737 0 47 -54 c85 -97 232 -178 378 -208 54 -11 904 -13 4880 -13 4661
0 4818 1 4895 19 44 10 87 22 95 26 8 4 49 11 90 15 41 4 134 22 206 40 335
86 693 273 879 460 132 132 126 110 190 692 116 1046 197 1780 230 2088 20
176 37 338 40 360 11 101 59 531 105 950 27 253 52 478 55 500 6 50 113 1030
121 1105 3 30 7 66 9 80 2 14 13 108 24 210 76 694 161 1465 221 2005 38 347
115 1042 170 1545 55 503 102 933 105 955 10 87 67 600 105 950 22 204 42 388
45 410 3 22 47 427 100 900 189 1719 176 1577 150 1680 -43 168 -180 320 -346
385 -123 49 -153 53 -444 60 -277 6 -281 7 -343 34 -119 52 -170 56 -693 56
-407 0 -479 2 -479 14 0 37 199 1259 208 1274 4 7 41 28 82 47 179 81 380 203
565 344 129 97 389 357 486 486 305 402 482 832 540 1310 15 130 15 452 0 580
-47 384 -181 763 -384 1090 -116 187 -321 433 -476 573 -57 52 -81 80 -81 97
0 13 25 173 54 357 30 183 66 405 80 493 14 88 53 327 86 530 84 518 194 1196
240 1480 51 317 237 1466 340 2100 28 171 59 364 70 430 16 106 67 416 235
1455 25 151 56 345 70 430 14 85 43 268 65 405 22 138 56 347 75 465 19 118
39 240 45 270 5 30 41 253 80 495 39 242 96 591 127 775 55 322 57 342 57 520
0 204 -12 278 -74 437 -92 241 -309 465 -546 566 -126 54 -233 78 -414 92 -30
2 -1064 4 -2296 4 l-2242 1 -63 88 c-82 114 -260 290 -379 375 -160 113 -375
211 -580 262 -217 55 -216 55 -1721 55 -1316 0 -1389 1 -1389 18 0 9 27 181
59 382 33 201 89 550 126 775 103 638 124 771 145 895 38 224 50 352 50 528 0
270 -28 454 -106 691 -238 725 -850 1222 -1614 1311 -114 13 -407 17 -580 9z
m275 -99 c600 -44 1094 -322 1410 -795 209 -313 310 -638 322 -1041 7 -219 -1
-296 -71 -734 -30 -184 -71 -436 -91 -560 -20 -124 -56 -346 -80 -495 -24
-148 -92 -565 -150 -925 -262 -1620 -241 -1506 -288 -1615 -106 -244 -335
-443 -579 -500 -95 -22 -3334 -23 -3419 -1 -193 51 -336 192 -395 391 -35 118
-27 209 85 890 56 341 112 688 126 770 124 768 199 1227 255 1580 22 138 51
315 65 395 13 80 33 206 45 280 94 596 370 1134 804 1565 232 230 460 396 734
533 296 148 606 239 882 259 47 3 86 6 87 7 10 7 137 5 258 -4z m-3236 -4665
c-5 -27 -23 -133 -39 -235 -16 -102 -64 -392 -106 -645 -86 -521 -92 -609 -55
-748 62 -233 237 -408 467 -467 75 -20 118 -20 1823 -20 1718 0 1747 0 1831
20 168 40 379 169 486 296 143 170 203 311 244 564 11 74 41 259 66 410 24
151 56 347 70 435 58 360 71 435 76 440 2 3 572 5 1265 5 1086 0 1276 -2 1365
-15 551 -82 988 -397 1228 -884 108 -219 163 -440 176 -711 9 -166 -6 -308
-70 -705 -30 -181 -79 -487 -110 -680 -31 -192 -67 -395 -80 -450 -86 -364
-385 -673 -753 -778 l-78 -22 -6145 -2 c-6040 -2 -6146 -1 -6223 18 -237 58
-423 236 -496 474 -21 68 -24 101 -25 215 0 126 8 184 117 850 123 749 135
813 187 975 251 782 937 1446 1701 1645 264 68 142 63 1679 69 767 3 1398 4
1402 1 4 -3 2 -27 -3 -55z m-4424 -805 c-129 -160 -268 -386 -347 -563 -105
-238 -152 -407 -208 -752 -22 -137 -50 -307 -62 -377 l-22 -128 -1165 0 c-665
0 -1172 -4 -1180 -9 -10 -6 -28 -96 -57 -278 -108 -665 -137 -842 -233 -1438
-28 -170 -67 -409 -86 -530 -37 -230 -50 -307 -139 -855 -91 -562 -91 -560
-80 -578 15 -23 58 -27 74 -7 8 9 24 80 36 158 13 78 61 381 109 672 47 292
95 586 106 655 11 69 35 220 54 335 94 581 138 849 170 1048 61 379 105 651
111 690 l6 37 1111 1 c1049 1 1138 1 1145 -5 1 -2 -21 -142 -50 -312 -72 -430
-71 -561 4 -757 68 -178 202 -324 373 -407 55 -27 132 -57 170 -67 68 -17 292
-18 6370 -18 6097 0 6303 1 6379 19 319 74 590 281 760 579 88 155 115 269
203 841 9 59 22 113 28 120 8 8 270 10 982 8 l970 -2 -13 -83 c-7 -45 -28
-176 -47 -292 -203 -1244 -231 -1427 -221 -1443 14 -22 57 -27 73 -9 14 18 22
61 101 552 34 209 79 490 101 625 22 135 51 315 64 400 14 85 30 179 35 209
13 72 13 114 -2 129 -9 9 -250 12 -1021 12 l-1010 0 7 53 c4 28 29 187 56 352
74 454 81 597 44 865 -27 200 -86 396 -168 558 l-36 72 1892 0 c1066 0 1931
-4 1979 -9 286 -31 525 -165 685 -387 60 -84 129 -232 155 -334 33 -131 35
-371 4 -550 -13 -74 -39 -234 -59 -355 -20 -121 -70 -429 -111 -685 -42 -256
-94 -577 -116 -715 -63 -388 -156 -965 -199 -1230 -22 -132 -60 -368 -85 -525
-26 -157 -64 -393 -85 -525 -81 -500 -102 -629 -156 -960 -30 -187 -72 -448
-94 -580 -21 -132 -55 -339 -75 -460 -19 -121 -86 -537 -149 -925 -63 -388
-158 -973 -211 -1300 -53 -327 -118 -730 -145 -895 -27 -165 -50 -311 -52
-325 -3 -22 9 -32 117 -94 216 -123 398 -260 579 -436 441 -428 705 -943 792
-1545 23 -156 23 -502 1 -660 -85 -604 -343 -1108 -788 -1540 -435 -421 -966
-679 -1597 -777 -199 -31 -649 -33 -837 -5 -369 57 -674 153 -974 308 -272
140 -506 313 -731 539 -76 77 -79 79 -30 21 231 -272 558 -524 900 -696 309
-155 701 -268 1045 -302 99 -10 526 -10 618 -1 65 7 67 6 62 -15 -3 -12 -18
-105 -34 -207 -16 -102 -46 -286 -66 -410 -20 -124 -44 -272 -53 -330 l-17
-105 -1232 -3 c-1169 -2 -1231 -1 -1227 15 11 50 144 891 144 914 0 52 -72 64
-89 16 -4 -12 -41 -230 -82 -484 l-74 -463 -908 0 -909 0 6 28 c4 15 31 160
61 322 71 389 142 767 160 860 93 480 207 1115 208 1155 1 104 -46 192 -131
246 -87 55 -119 60 -457 66 -273 5 -318 3 -375 -12 -127 -33 -235 -105 -301
-201 -41 -59 -55 -105 -85 -263 -21 -117 -145 -784 -275 -1481 -22 -118 -57
-309 -79 -425 -22 -115 -42 -229 -46 -252 l-7 -43 -213 0 -213 0 7 33 c14 61
6 169 -16 219 -26 58 -92 131 -146 163 -85 48 -129 54 -460 61 -268 5 -321 4
-380 -10 -109 -26 -192 -72 -272 -151 -81 -80 -120 -151 -137 -248 l-11 -64
-190 -6 c-154 -4 -205 -9 -264 -26 -250 -73 -443 -230 -541 -442 -46 -99 -56
-149 -97 -522 -21 -191 -41 -352 -45 -358 -4 -7 -98 -10 -261 -9 -155 0 -276
-4 -309 -11 -96 -20 -190 -70 -267 -144 -91 -85 -126 -154 -152 -296 -10 -57
-39 -214 -64 -349 -59 -319 -235 -1281 -246 -1345 -5 -27 -36 -198 -70 -380
-33 -181 -112 -613 -176 -960 -63 -346 -135 -740 -160 -875 -25 -135 -83 -452
-129 -705 -47 -253 -105 -572 -131 -710 -51 -278 -52 -322 -8 -412 33 -68 116
-143 190 -173 70 -27 250 -38 584 -35 183 1 211 4 264 23 83 31 142 67 205
126 l53 51 -6 -45 c-3 -25 -21 -191 -41 -370 -30 -279 -50 -456 -70 -635 -3
-22 -43 -386 -90 -810 -46 -423 -127 -1159 -180 -1634 -52 -476 -95 -868 -95
-873 0 -4 -1399 -8 -3108 -8 -2404 0 -3111 -3 -3120 -12 -19 -19 -14 -56 10
-72 20 -15 329 -16 3112 -16 1699 0 3090 -1 3091 -2 2 -2 -15 -158 -36 -348
-21 -190 -52 -473 -69 -630 -17 -157 -33 -301 -35 -320 -9 -65 -153 -1384
-160 -1455 -4 -38 -9 -78 -11 -87 -8 -27 16 -177 36 -230 l18 -48 -2732 0
-2732 0 -49 51 c-80 82 -224 170 -478 293 -270 131 -382 200 -482 297 -39 38
-88 75 -109 84 l-38 16 7 87 c4 48 11 92 15 97 4 6 15 48 25 95 9 47 25 123
35 170 94 417 177 854 200 1050 6 52 13 106 15 120 3 14 9 77 15 140 5 63 12
131 15 150 7 53 29 406 40 650 33 725 51 911 130 1325 89 472 189 1162 266
1825 26 227 23 699 -7 1039 l-6 74 32 -37 c40 -46 103 -83 179 -106 89 -28
657 -40 751 -16 159 40 299 145 360 270 33 67 24 25 185 926 58 327 125 705
150 840 24 135 66 373 94 530 28 157 69 384 91 505 117 653 150 849 145 866
-4 10 -18 22 -32 25 -48 12 -57 -12 -103 -271 -67 -384 -75 -425 -165 -930
-101 -570 -154 -863 -200 -1120 -19 -104 -41 -228 -49 -275 -93 -538 -181
-1003 -196 -1035 -47 -105 -147 -188 -273 -226 -67 -21 -83 -21 -381 -16 -171
3 -325 10 -341 15 -111 34 -182 106 -200 204 -4 20 -1 70 5 112 l13 76 141 68
c187 91 253 134 260 169 3 16 8 114 11 218 4 105 8 213 10 240 2 28 6 115 10
195 3 80 8 188 10 240 2 52 7 154 10 225 3 72 7 171 10 220 2 50 7 149 10 220
3 72 8 175 10 230 3 55 9 204 15 330 16 344 36 550 76 775 21 118 21 118 57
126 51 11 418 131 592 194 1060 383 1741 821 1969 1265 63 123 71 161 71 345
-1 269 -5 280 -394 1228 -178 432 -281 695 -281 717 0 18 5 46 11 62 5 15 106
125 223 243 254 257 309 330 377 493 44 105 65 196 99 411 25 165 28 205 19
240 -19 72 -76 116 -149 116 -125 0 -223 -130 -340 -447 -29 -79 -65 -163 -80
-187 -32 -49 -99 -94 -155 -103 l-37 -6 7 125 c8 143 1 179 -46 224 -26 25
-38 29 -89 29 -96 0 -102 -9 -226 -355 -109 -308 -134 -392 -155 -525 -18
-113 -16 -366 4 -520 9 -71 37 -308 62 -525 25 -217 52 -451 60 -520 8 -69 20
-180 27 -247 l12 -122 -37 -44 c-76 -93 -324 -271 -485 -348 -221 -106 -431
-165 -652 -183 -53 -4 -70 1 -70 20 0 24 -31 64 -61 80 -16 8 -26 20 -24 27 2
6 19 95 36 197 17 102 40 208 51 237 37 99 149 197 269 234 54 17 94 19 363
19 319 0 326 1 326 46 0 50 -20 53 -334 54 -231 0 -303 -3 -351 -15 -170 -43
-319 -170 -369 -313 -9 -24 -29 -120 -46 -215 -16 -95 -32 -181 -35 -193 -5
-21 -6 -20 -102 13 -243 85 -625 150 -993 168 -69 4 -154 8 -190 10 -36 2
-152 4 -258 5 l-192 0 5 83 c12 167 11 164 56 171 99 16 201 100 258 214 36
71 67 184 81 296 13 105 11 378 -5 530 l-12 120 87 97 c123 137 138 191 105
368 -47 244 -148 441 -318 618 -277 287 -661 402 -1032 308 -223 -56 -402
-175 -574 -381 -45 -54 -154 -206 -243 -338 -199 -295 -303 -409 -432 -472
-73 -36 -87 -39 -182 -42 -155 -6 -155 -6 -569 323 -300 238 -811 618 -1074
800 -316 217 -529 312 -669 299 -400 -38 -834 -566 -978 -1190 -35 -151 -40
-388 -12 -492 44 -157 121 -253 260 -322 126 -62 239 -82 449 -78 93 2 169 1
169 0 0 -2 -27 -34 -61 -70 -172 -188 -312 -479 -371 -776 -31 -152 -33 -489
-4 -641 107 -568 409 -939 918 -1129 228 -85 414 -116 681 -113 l189 2 -7 -30
c-74 -359 -90 -880 -39 -1275 65 -507 220 -839 439 -942 92 -43 230 -57 395
-40 63 7 124 15 136 18 20 5 21 -1 43 -258 12 -145 24 -276 26 -293 2 -16 14
-149 26 -295 13 -154 27 -273 34 -285 9 -15 43 -28 131 -49 66 -16 122 -31
126 -35 5 -4 -5 -47 -21 -96 -16 -50 -37 -116 -46 -148 l-16 -59 -182 7 c-100
4 -202 13 -225 21 -59 17 -114 57 -148 106 -47 67 -44 122 25 515 34 189 61
353 61 366 0 43 -53 65 -80 32 -7 -8 -41 -178 -77 -377 -72 -410 -76 -465 -31
-553 15 -27 43 -67 65 -88 85 -86 177 -116 353 -118 63 -1 138 -4 166 -7 l51
-7 -93 -450 c-228 -1103 -291 -1486 -300 -1840 -9 -350 -39 -424 -290 -715
-381 -443 -558 -686 -684 -939 -80 -159 -124 -274 -218 -566 -163 -504 -169
-527 -159 -555 9 -24 1 -39 -99 -169 -92 -120 -111 -141 -129 -136 -53 18 -86
17 -126 -4 -138 -72 -589 -398 -651 -471 -42 -48 -58 -98 -58 -174 0 -54 9
-74 156 -364 290 -568 446 -859 509 -947 l35 -50 -437 -3 c-240 -1 -438 -1
-440 1 -1 2 7 30 19 63 20 54 22 77 23 289 0 253 -10 362 -56 590 -62 303
-186 610 -338 838 -81 121 -109 142 -178 134 -31 -3 -54 -14 -84 -42 -22 -20
-43 -34 -45 -32 -11 11 -3 521 7 528 6 4 37 10 69 13 l58 7 6 67 c3 37 10 164
16 282 6 118 13 252 16 297 l6 83 602 0 c528 0 604 2 624 16 26 18 28 46 6 68
-14 14 -84 16 -625 16 l-609 0 5 53 c10 97 46 1168 67 1957 17 649 17 3135 0
3700 -63 2075 -185 3586 -387 4791 -14 81 -25 149 -25 152 0 2 21 7 46 10 82
9 144 76 144 156 0 25 -16 174 -36 331 -35 273 -36 285 -18 295 38 21 72 63
83 100 9 34 -13 376 -53 810 -3 28 -8 89 -12 136 l-6 86 31 11 c65 23 180 109
301 225 69 67 150 146 181 175 l56 54 50 -25 c130 -66 291 -78 429 -32 96 32
146 64 306 197 600 500 1135 1094 1442 1601 32 53 60 96 61 95 2 -2 19 -42 39
-91 322 -781 941 -1406 1721 -1737 145 -62 429 -153 585 -189 600 -135 1268
-118 1900 50 636 169 1246 473 1780 889 662 515 1219 1213 1563 1956 325 702
482 1452 447 2134 -5 102 -12 205 -15 230 -19 148 -39 280 -61 385 -220 1050
-864 1890 -1788 2330 -576 275 -1244 388 -1916 324 -58 -5 -116 -12 -130 -14
-14 -2 -50 -6 -80 -10 -30 -4 -113 -18 -185 -32 -1275 -243 -2434 -1023 -3220
-2168 -160 -234 -308 -494 -436 -769 -61 -132 -169 -397 -169 -415 0 -23 -16
-9 -45 37 -46 73 -192 266 -289 382 -273 327 -654 680 -1061 983 -302 225
-791 537 -1122 718 -35 18 -63 37 -63 41 0 4 30 40 66 80 36 40 116 150 178
243 209 317 219 333 224 386 9 95 -49 185 -135 208 -51 14 -81 14 -136 -3 -26
-8 -47 -11 -47 -6 0 4 7 47 16 96 8 49 30 184 49 299 41 260 161 997 221 1365
25 151 60 372 79 490 19 118 86 532 149 920 63 388 158 973 211 1300 53 327
114 703 135 835 22 132 73 452 115 710 150 928 163 1000 199 1109 139 417 475
769 878 920 93 35 218 66 307 75 42 5 997 9 2123 10 l2048 1 -65 -80z m-9966
-5558 l43 -7 29 -86 c72 -223 213 -505 386 -773 76 -118 79 -142 18 -169 -84
-37 -86 -39 -109 -112 -19 -61 -28 -74 -71 -108 -73 -56 -200 -130 -280 -162
-57 -24 -85 -29 -155 -29 -98 -1 -145 19 -195 82 -29 36 -136 289 -261 617
-35 94 -99 239 -142 324 l-77 153 35 30 c105 90 250 170 368 204 132 39 298
53 411 36z m-994 -581 c22 -10 68 -47 101 -83 63 -65 144 -181 144 -204 0 -19
-59 -64 -119 -92 -101 -47 -209 -13 -272 86 -64 100 -66 206 -6 271 42 44 89
51 152 22z m93 -827 c82 -34 130 -105 197 -294 102 -289 186 -377 397 -417 81
-15 205 -14 314 3 l41 6 48 -342 c54 -388 54 -414 2 -524 -72 -150 -205 -252
-387 -297 -86 -22 -259 -17 -353 9 -101 29 -240 98 -287 143 -76 74 -73 56
-171 881 -49 414 -89 758 -89 764 0 9 105 64 150 78 32 10 102 5 138 -10z
m-2638 -566 c53 -13 112 -41 156 -75 43 -32 86 -118 123 -248 40 -136 75 -203
157 -299 35 -41 64 -78 64 -82 0 -4 -32 -43 -71 -86 -85 -94 -100 -134 -99
-263 1 -49 1 -136 1 -193 -1 -102 -1 -103 -28 -113 -46 -18 -203 -47 -295 -54
-48 -4 -94 -12 -103 -19 -12 -8 -37 -143 -100 -539 -47 -290 -85 -534 -85
-543 0 -33 32 -82 63 -97 18 -9 93 -28 167 -43 74 -15 139 -30 143 -34 21 -19
-189 -171 -320 -231 -295 -137 -742 -192 -1078 -133 -157 27 -352 82 -428 121
l-28 14 85 53 c463 291 752 748 831 1311 3 22 8 105 11 185 8 183 6 188 -114
267 -110 72 -195 157 -227 225 -41 87 -29 186 29 244 42 42 77 50 140 34 98
-26 145 -7 172 68 72 201 187 366 316 452 129 86 346 119 518 78z m14475 -283
c1303 -155 2305 -952 2710 -2156 l43 -127 -27 -12 c-368 -171 -2345 -1059
-2349 -1056 -2 3 -19 40 -36 83 -169 412 -538 696 -997 768 -134 21 -382 14
-519 -14 -730 -151 -1351 -762 -1514 -1492 -83 -371 -45 -720 110 -1020 73
-141 154 -245 289 -367 205 -187 508 -304 817 -314 62 -2 88 -7 88 -15 0 -7
-97 -482 -215 -1055 -119 -574 -229 -1108 -246 -1188 -16 -80 -33 -161 -37
-180 l-8 -35 -135 1 c-343 3 -760 86 -1103 219 -600 231 -1096 618 -1458 1135
-120 172 -266 447 -345 647 l-44 113 75 153 c151 311 260 651 291 912 4 32 9
68 12 80 10 40 11 382 2 470 -31 304 -139 637 -301 928 l-51 92 22 65 c250
722 712 1440 1287 2000 833 811 1872 1296 2954 1380 157 12 527 4 685 -15z
m-7244 -344 c47 -48 41 -87 -33 -201 -245 -377 -251 -384 -362 -496 -117 -117
-240 -206 -369 -268 -40 -19 -207 -86 -372 -149 -165 -63 -315 -122 -334 -131
-51 -27 -124 -104 -149 -160 -35 -73 -40 -126 -47 -451 -3 -165 -7 -336 -10
-380 -3 -44 -7 -217 -10 -385 -6 -319 -14 -553 -20 -558 -1 -2 -93 68 -203
155 -109 87 -284 225 -388 307 -104 82 -195 154 -203 161 -11 11 20 119 183
646 108 349 210 670 226 714 85 219 243 473 397 637 53 56 193 203 311 326
182 188 219 222 243 222 35 0 69 -31 69 -64 0 -13 -41 -108 -91 -211 -108
-222 -108 -218 3 -260 128 -48 237 -44 356 12 44 21 100 69 252 218 324 317
467 399 551 316z m-3136 -11 c442 -52 841 -139 1254 -276 124 -41 227 -77 230
-79 3 -3 -33 -45 -80 -93 -150 -153 -258 -305 -357 -500 -86 -169 -112 -244
-312 -892 -99 -322 -184 -595 -188 -607 -7 -21 -14 -17 -120 67 -62 50 -117
90 -122 90 -25 0 -63 -61 -196 -310 -81 -151 -159 -296 -174 -323 l-27 -47
-84 65 c-46 36 -94 65 -106 65 -14 0 -42 -25 -87 -79 -209 -250 -469 -404
-706 -418 -81 -4 -105 -2 -160 17 -305 103 -812 477 -1426 1051 -105 98 -220
200 -255 226 -242 178 -493 294 -764 354 -106 23 -403 59 -492 59 -35 0 -63 3
-63 8 -1 26 114 729 121 736 4 5 54 15 111 22 210 27 304 63 325 124 7 19 12
90 12 157 l1 121 113 35 c523 165 1146 300 1808 392 l37 5 7 -58 c3 -31 8 -68
10 -82 2 -14 9 -68 14 -121 14 -129 42 -198 108 -270 76 -82 238 -163 385
-194 166 -35 305 -28 449 25 158 57 287 169 357 308 54 109 69 196 53 322 -7
52 -15 103 -18 114 -5 18 0 18 83 12 49 -3 166 -15 259 -26z m2794 -906 c228
-123 396 -226 732 -446 464 -306 758 -539 1097 -873 893 -877 1213 -1696 1016
-2600 -184 -846 -861 -1788 -1905 -2652 -158 -131 -239 -167 -379 -167 -55 0
-104 7 -140 18 -98 33 -97 30 -46 87 114 127 152 321 95 486 -73 215 -285 357
-504 339 -140 -11 -240 -60 -338 -166 l-66 -71 -31 53 c-57 98 -75 178 -74
318 2 169 24 239 159 500 59 113 190 369 293 570 379 741 364 701 366 945 1
168 -15 266 -65 396 -75 195 -202 337 -391 438 -173 93 -325 95 -420 4 -18
-17 -31 -22 -41 -17 -8 5 -150 117 -317 249 l-302 240 6 295 c4 162 9 360 11
440 5 164 12 404 21 755 7 295 14 326 87 399 51 50 60 54 357 165 406 153 473
184 620 292 36 27 67 48 69 49 2 0 42 -21 90 -46z m-6689 -849 c172 -22 255
-39 376 -80 383 -128 741 -399 872 -660 33 -67 90 -251 122 -395 69 -313 93
-709 65 -1070 -2 -30 -7 -89 -10 -130 -4 -41 -20 -201 -36 -355 -17 -154 -34
-323 -40 -375 -5 -52 -11 -108 -14 -125 -8 -56 -35 -380 -45 -530 -9 -148 -6
-813 5 -890 6 -47 69 -784 90 -1065 3 -36 7 -92 10 -125 49 -613 53 -1143 9
-1295 -35 -124 -125 -232 -244 -294 -69 -37 -177 -64 -235 -61 -16 2 -131 5
-255 9 -124 4 -268 9 -320 11 -52 2 -174 7 -270 10 -402 13 -953 31 -1200 40
-116 5 -574 20 -1195 40 -93 3 -217 8 -275 10 -506 23 -761 7 -1157 -68 l-123
-24 0 23 c0 73 145 822 166 856 3 4 28 -21 57 -55 105 -124 264 -217 430 -251
87 -18 176 -13 272 15 87 26 114 40 295 149 278 167 415 207 730 213 180 4
201 6 275 31 187 64 311 152 364 258 38 74 40 133 10 214 -32 84 -154 209
-257 262 -241 125 -648 182 -875 123 -168 -43 -238 -79 -484 -248 l-153 -104
-43 68 c-141 219 -225 351 -240 374 l-18 27 211 230 c156 172 210 238 210 256
0 21 -26 45 -137 132 -76 58 -138 111 -138 117 0 7 11 60 24 120 l25 107 170
0 c267 0 522 21 796 66 187 31 301 63 399 110 254 124 342 439 175 624 -79 87
-154 116 -329 124 -66 4 -167 9 -225 11 -58 3 -145 8 -195 10 -49 3 -184 9
-300 15 -115 6 -221 15 -235 21 -53 20 -58 51 -45 263 7 117 0 156 -30 156 -9
0 -15 10 -16 23 0 12 -2 36 -4 52 -1 17 -4 98 -5 180 -16 816 -163 1630 -396
2194 -28 66 -32 86 -22 92 29 19 284 114 478 179 422 142 800 237 1224 310 94
16 172 27 174 25 8 -7 -131 -145 -208 -208 -95 -77 -195 -141 -299 -192 -86
-42 -107 -69 -80 -102 37 -44 327 -150 514 -188 233 -46 407 -53 660 -24 413
46 776 213 940 431 77 102 71 107 -173 158 -106 22 -196 40 -199 40 -6 0 4 97
14 139 l6 24 119 -7 c65 -4 172 -13 238 -21z m17060 -283 c0 -4 11 -57 25
-117 62 -275 88 -511 89 -800 1 -241 -7 -381 -34 -580 -109 -818 -450 -1622
-986 -2325 -480 -631 -1091 -1138 -1806 -1500 -59 -30 -109 -52 -111 -50 -3 3
-125 424 -272 935 -147 512 -290 1011 -319 1110 l-52 180 114 65 c537 305 914
846 997 1431 19 136 19 329 -1 454 -9 55 -17 109 -18 119 -1 22 -60 -5 1304
611 422 190 654 295 870 394 173 78 200 88 200 73z m-3440 -207 c600 -97 1004
-587 1001 -1214 -1 -160 -15 -268 -51 -408 -208 -801 -983 -1414 -1755 -1387
-589 20 -1037 398 -1152 971 -27 135 -24 403 6 553 56 282 177 546 360 785
108 142 306 326 466 432 203 134 486 244 706 272 108 14 318 12 419 -4z
m-17080 -246 c156 -396 273 -902 325 -1404 3 -33 8 -78 10 -100 21 -200 51
-837 40 -855 -3 -6 -13 -10 -21 -10 -24 0 -110 -47 -149 -82 -85 -74 -164
-214 -225 -397 -50 -147 -70 -265 -70 -400 0 -160 33 -277 106 -378 15 -21
-10 -47 -893 -967 l-908 -947 -48 52 c-69 75 -176 228 -246 354 -235 423 -343
921 -311 1445 62 1047 324 1914 781 2595 330 491 734 853 1215 1091 119 59
301 132 331 134 6 0 35 -59 63 -131z m8124 -284 c237 -187 748 -592 1136 -899
388 -307 708 -561 712 -565 4 -3 -98 -114 -226 -246 -186 -192 -236 -238 -247
-229 -8 6 -239 186 -514 401 -544 423 -1472 1147 -1572 1226 -35 27 -63 53
-63 58 0 5 72 144 161 309 100 186 165 297 172 293 6 -4 205 -160 441 -348z
m-2894 -96 c241 -196 497 -372 670 -459 197 -99 319 -126 456 -100 225 42 419
153 616 352 l118 118 1271 -992 1272 -991 -44 -39 c-851 -749 -1607 -1140
-2399 -1239 -114 -14 -493 -18 -630 -7 -409 35 -888 203 -1278 448 -209 131
-432 302 -432 331 0 65 50 583 95 974 2 22 7 67 10 100 3 33 8 76 10 95 45
367 49 829 10 1133 -25 190 -90 469 -141 601 -4 11 60 -39 142 -110 82 -72
196 -169 254 -215z m4623 -913 c148 -61 293 -185 362 -310 83 -150 123 -334
112 -519 -11 -184 9 -137 -382 -902 -101 -198 -206 -401 -232 -452 l-49 -92
-28 322 c-15 177 -30 347 -32 377 -3 30 -9 96 -14 145 l-9 90 89 85 c50 47 90
89 90 94 0 21 -26 48 -95 101 l-76 59 103 105 c429 439 429 438 393 474 -8 8
-107 88 -220 177 -114 91 -205 170 -205 179 0 9 3 33 6 54 l7 37 61 0 c41 0
80 -8 119 -24z m-9429 -1304 c-8 -163 0 -195 56 -246 49 -44 84 -53 245 -60
126 -6 223 -11 410 -21 50 -3 149 -7 220 -10 192 -8 275 -15 319 -28 54 -15
131 -88 152 -142 24 -63 15 -167 -20 -239 -80 -164 -273 -237 -776 -297 -221
-26 -701 -38 -778 -20 -162 39 -246 181 -245 411 2 314 155 678 322 765 25 13
58 24 74 25 l27 0 -6 -138z m9071 -158 c3 -21 14 -147 25 -279 11 -132 29
-342 40 -467 l20 -228 -29 -87 c-85 -255 -58 -491 79 -699 l20 -31 -89 -114
c-48 -63 -100 -120 -115 -127 -40 -18 -116 -15 -151 6 -16 10 -113 97 -214
193 -209 198 -240 221 -335 251 -92 28 -216 21 -379 -21 -339 -89 -650 -260
-893 -493 -64 -62 -84 -88 -94 -123 -18 -66 -6 -112 44 -161 52 -53 105 -69
202 -60 93 9 261 -8 509 -48 258 -43 375 -89 605 -236 179 -115 314 -174 480
-210 106 -23 383 -22 468 2 28 8 52 15 53 14 2 -4 12 -116 29 -326 10 -135 27
-331 35 -437 17 -200 14 -226 -22 -237 -17 -4 -162 -8 -918 -21 -159 -3 -405
-8 -545 -10 -140 -3 -394 -7 -565 -10 -170 -3 -429 -7 -575 -10 -146 -3 -672
-12 -1170 -20 -498 -8 -960 -16 -1027 -18 -106 -3 -123 -2 -127 12 -3 9 -10
42 -16 73 -11 56 -11 56 25 104 67 87 99 172 116 303 10 84 14 592 5 681 -3
25 -8 106 -11 180 -3 74 -8 153 -10 175 -2 22 -7 83 -10 135 -7 115 -52 666
-65 805 -5 55 -12 132 -15 170 -3 39 -10 117 -16 175 -6 58 -13 273 -16 479
-5 318 -4 372 8 365 8 -5 67 -48 131 -97 705 -529 1531 -742 2346 -606 685
114 1394 465 2067 1022 50 41 91 74 93 72 1 -1 4 -19 7 -41z m-9325 -980 c25
-9 46 -18 47 -18 0 -1 -9 -42 -20 -93 l-22 -92 -77 60 c-43 33 -78 65 -78 70
0 16 83 100 94 96 6 -3 31 -13 56 -23z m233 -504 c17 -16 -17 -54 -673 -776
-381 -417 -711 -778 -734 -802 l-43 -44 -72 101 c-105 147 -301 442 -301 452
0 5 306 328 681 718 l681 709 222 -170 c121 -94 229 -178 239 -188z m9912
-118 c84 -40 157 -113 198 -200 29 -61 32 -75 31 -162 0 -73 -5 -109 -23 -155
-21 -55 -42 -79 -274 -308 -140 -138 -281 -268 -317 -292 -144 -96 -288 -138
-475 -137 -243 0 -426 60 -664 216 -221 144 -369 203 -616 245 -260 43 -343
52 -499 52 -174 0 -206 13 -206 83 0 16 26 48 80 99 218 209 506 371 805 452
151 41 257 56 318 44 97 -18 143 -50 347 -245 229 -219 263 -239 370 -232 112
8 134 27 315 263 169 219 225 271 318 295 23 6 47 13 52 15 6 3 47 3 92 1 66
-3 95 -10 148 -34z m-10101 -702 c94 -146 168 -252 179 -256 14 -4 77 33 237
140 119 80 248 160 285 177 195 88 410 100 685 38 203 -46 322 -101 411 -190
88 -88 118 -169 89 -243 -25 -68 -128 -146 -262 -199 -99 -40 -145 -46 -358
-51 -141 -3 -212 -8 -255 -20 -199 -56 -317 -107 -485 -213 -166 -105 -249
-139 -359 -149 -133 -12 -318 59 -430 164 -34 31 -139 156 -235 276 l-175 219
57 63 c31 34 145 159 252 278 107 118 197 215 200 215 3 0 77 -112 164 -249z
m19512 -21 c15 -17 15 -29 -10 -201 -30 -204 -54 -311 -92 -402 -66 -155 -111
-213 -369 -476 -208 -211 -222 -229 -239 -283 -13 -41 -16 -73 -12 -107 4 -29
128 -343 306 -777 299 -728 338 -835 364 -1010 42 -284 -26 -462 -274 -714
-298 -302 -759 -569 -1457 -843 -298 -117 -782 -282 -802 -274 -5 2 65 294
154 650 89 356 165 660 168 676 l6 29 108 7 c257 16 574 121 819 271 263 161
424 323 424 427 0 18 -7 86 -15 153 -8 66 -28 239 -45 385 -17 146 -32 281
-35 300 -86 663 -99 926 -56 1127 16 78 176 554 236 706 6 13 16 17 39 15 l31
-3 0 -171 c0 -212 -2 -209 106 -201 90 6 155 35 218 98 52 53 65 77 131 254
65 174 119 283 167 336 55 61 92 69 129 28z m6325 -848 c60 -23 118 -72 146
-124 18 -33 25 -172 11 -209 -7 -17 -46 -18 -617 -18 l-609 0 14 62 c8 35 26
81 39 104 51 86 176 177 282 204 22 5 175 8 358 6 299 -3 324 -5 376 -25z
m8211 -470 c233 -60 382 -215 418 -433 8 -51 5 -107 -15 -293 -26 -237 -107
-975 -220 -1995 -35 -322 -87 -792 -114 -1045 -28 -253 -57 -516 -66 -585 -8
-69 -26 -233 -40 -365 -14 -132 -34 -316 -45 -410 -10 -93 -22 -199 -25 -235
-4 -36 -8 -76 -10 -90 -2 -14 -27 -234 -55 -490 -44 -410 -81 -742 -95 -865
-3 -22 -75 -674 -160 -1450 -85 -775 -182 -1655 -215 -1955 -33 -300 -78 -709
-100 -910 -22 -201 -42 -383 -45 -405 -3 -22 -39 -348 -80 -725 -41 -377 -77
-703 -80 -725 -8 -65 -81 -733 -135 -1235 -28 -256 -57 -500 -65 -543 -25
-141 -110 -282 -229 -378 -80 -66 -216 -133 -313 -156 -75 -17 -261 -18 -4913
-18 l-4835 0 -85 31 c-204 73 -328 208 -368 403 -15 73 -14 86 11 311 15 129
34 296 42 370 16 157 42 386 130 1185 57 508 168 1524 400 3630 36 325 83 757
105 960 22 204 45 404 50 445 5 41 34 305 65 585 30 281 57 528 60 550 11 89
137 1241 151 1375 3 30 7 66 9 80 2 14 16 133 30 265 14 132 53 481 85 775 62
559 154 1392 265 2400 127 1162 156 1415 166 1455 6 22 29 76 52 120 73 143
225 274 390 337 127 49 -141 46 4988 47 4728 1 4817 1 4891 -18z m-18937 -81
c356 -31 370 -34 433 -94 46 -44 74 -155 102 -411 6 -55 13 -120 16 -145 9
-73 5 -369 -5 -450 -40 -302 -157 -435 -364 -415 -239 23 -430 109 -596 269
-95 92 -153 173 -221 310 -54 108 -57 111 -95 119 -158 32 -247 83 -285 163
-41 84 -42 240 -2 293 40 53 68 66 153 67 44 1 82 4 86 8 4 3 10 35 14 71 16
126 83 203 206 235 51 13 266 5 558 -20z m-14395 -214 c36 -3 157 -7 270 -11
113 -3 255 -8 315 -10 61 -3 324 -12 585 -20 261 -8 522 -17 580 -20 58 -2
212 -8 343 -11 131 -4 251 -9 267 -13 l28 -6 -64 -225 c-200 -700 -413 -1186
-591 -1352 -62 -57 -98 -66 -182 -44 -167 43 -341 172 -820 610 -141 129 -296
269 -346 311 -293 252 -517 379 -690 392 -311 24 -695 -335 -1086 -1014 l-91
-158 7 55 c27 219 125 731 176 920 61 226 166 531 188 544 9 6 271 42 391 55
79 8 575 6 720 -3z m3853 -193 c61 -313 105 -605 122 -798 3 -33 8 -77 10 -97
10 -72 6 -426 -5 -494 -15 -93 -30 -114 -80 -114 -37 0 -44 6 -156 128 -289
312 -571 685 -771 1017 -86 142 -223 417 -223 447 0 5 92 6 238 1 130 -4 316
-8 412 -8 155 0 183 3 245 23 39 13 90 36 115 52 25 16 48 29 51 29 3 1 22
-83 42 -186z m-1163 -28 c138 -312 341 -635 639 -1010 175 -221 422 -498 480
-539 17 -12 31 -25 31 -31 0 -5 36 -262 80 -570 129 -898 223 -1592 305 -2245
69 -544 94 -757 130 -1105 14 -137 28 -268 30 -290 7 -69 14 -147 20 -240 3
-49 8 -103 10 -120 2 -16 6 -106 10 -200 11 -339 42 -768 90 -1250 14 -137 27
-277 31 -310 8 -86 110 -997 134 -1205 31 -265 165 -1341 215 -1725 50 -379
46 -353 80 -600 13 -99 21 -183 17 -187 -14 -13 -262 -69 -393 -88 -201 -30
-317 -38 -504 -34 -159 3 -343 21 -453 45 l-48 10 -78 222 c-338 963 -906
2649 -1175 3487 -430 1345 -745 2398 -971 3250 -44 168 -85 315 -90 328 -11
25 -61 31 -77 10 -10 -14 -33 -95 -172 -623 -648 -2461 -1037 -4354 -1176
-5722 -13 -131 -26 -283 -30 -338 -3 -55 -8 -125 -10 -155 -2 -30 -7 -119 -11
-196 l-6 -142 -77 -12 c-42 -6 -85 -13 -96 -15 -11 -1 -61 -6 -110 -10 -50 -4
-101 -9 -115 -11 -39 -5 -540 -5 -585 0 -22 3 -74 8 -115 11 -120 9 -334 36
-341 43 -4 4 -10 75 -13 157 -4 83 -8 186 -11 230 -5 92 -12 267 -20 505 -3
91 -8 201 -10 245 -2 44 -7 213 -10 375 -4 162 -8 306 -11 319 -8 52 -19 1220
-19 1951 1 659 10 1487 20 1685 2 33 6 161 9 285 4 124 9 266 11 315 2 50 7
151 10 225 3 74 7 169 10 210 3 41 7 127 10 190 63 1282 197 2531 376 3505 46
251 51 262 202 477 243 345 439 532 632 598 161 55 324 0 588 -198 136 -102
190 -149 517 -447 405 -369 523 -465 688 -564 154 -92 292 -117 386 -72 211
103 495 712 717 1536 22 83 42 156 44 163 4 9 25 12 77 10 l71 -3 57 -130z
m6090 133 c0 -10 54 -442 68 -543 16 -112 5 -120 -193 -136 -236 -18 -799 -15
-911 5 -11 2 -50 7 -89 10 -492 48 -1025 196 -1474 412 -84 41 -161 74 -169
74 -8 0 -72 -24 -141 -54 -519 -222 -1058 -356 -1678 -419 -141 -14 -153 -11
-153 30 0 23 -74 472 -85 516 l-6 24 458 7 c252 4 530 9 618 11 88 2 336 7
550 10 215 3 478 7 585 10 107 3 364 7 570 10 206 3 454 8 550 10 96 3 364 7
595 11 231 3 421 7 422 8 5 4 483 8 483 4z m5102 -983 c53 -62 189 -164 278
-210 105 -53 210 -89 316 -105 43 -7 80 -14 82 -15 1 -1 -5 -91 -13 -200 -15
-189 -15 -200 2 -216 10 -10 101 -39 213 -68 204 -53 229 -65 230 -118 0 -50
-21 -71 -109 -108 -354 -149 -769 -185 -1164 -104 -151 31 -309 84 -336 113
-28 29 -32 83 -9 117 9 13 80 60 158 104 78 44 146 89 151 100 8 17 159 719
159 738 0 14 11 6 42 -28z m8924 -32 c-3 -32 -35 -321 -71 -643 -35 -322 -94
-850 -129 -1175 -187 -1694 -230 -2087 -261 -2375 -19 -173 -42 -371 -50 -440
-8 -69 -28 -255 -45 -415 -35 -328 -35 -325 -85 -605 -44 -240 -62 -287 -147
-365 -63 -59 -139 -99 -220 -116 -67 -15 -634 -5 -693 11 -97 28 -178 111
-191 199 -8 52 -13 20 116 721 89 483 199 1088 400 2185 54 297 138 752 185
1010 48 259 90 493 95 520 17 96 129 710 139 760 6 28 29 151 51 275 28 155
49 241 66 277 45 94 142 175 259 215 42 15 90 17 319 18 l268 0 -6 -57z
m-7396 -668 c316 -26 603 -77 803 -142 134 -43 236 -88 243 -107 3 -8 -73
-331 -170 -718 -96 -386 -184 -745 -196 -796 -42 -191 -84 -498 -95 -697 -3
-60 -8 -148 -10 -195 -5 -94 -22 -461 -30 -665 -3 -71 -8 -170 -10 -220 -5
-83 -17 -367 -30 -680 -3 -71 -8 -168 -10 -215 -2 -47 -7 -146 -11 -220 -3
-74 -8 -138 -10 -142 -9 -14 -132 -79 -244 -129 -504 -225 -1171 -334 -1844
-300 -132 6 -257 14 -276 16 -19 3 -109 14 -200 25 -190 23 -485 76 -680 123
l-135 32 -7 40 c-4 22 -17 150 -28 285 -12 135 -23 268 -25 295 -8 87 -35 409
-38 443 l-2 34 100 33 c255 84 481 205 950 507 381 246 519 316 750 383 467
134 776 317 932 550 101 151 137 355 80 457 -20 37 -83 78 -118 78 -44 0 -130
-39 -260 -116 -79 -48 -185 -106 -236 -131 -89 -43 -256 -93 -268 -81 -3 3 19
40 49 82 89 124 97 187 31 245 -127 112 -326 -6 -530 -314 -132 -199 -248
-306 -430 -397 -157 -79 -354 -133 -614 -168 -243 -32 -332 -25 -418 33 -99
67 -135 140 -183 378 -39 196 -89 386 -147 564 -36 109 -228 628 -360 971 -9
23 -13 48 -10 57 21 56 502 348 776 471 226 103 394 156 668 211 203 41 220
43 175 14 -99 -64 -110 -223 -20 -307 50 -46 330 -127 538 -156 153 -21 470
-15 620 12 208 38 480 128 542 180 36 31 68 94 68 137 0 40 -31 104 -66 137
-22 21 -62 36 -164 64 -256 68 -260 64 70 59 162 -3 378 -12 480 -20z m-3565
-1435 c173 -459 245 -698 305 -1014 26 -136 58 -221 110 -294 92 -132 234
-192 420 -177 334 26 630 98 834 203 190 97 314 212 449 417 105 159 159 221
239 275 51 34 69 40 101 38 77 -6 73 -29 -38 -186 -50 -70 -58 -114 -27 -152
61 -76 330 4 627 186 206 125 253 137 275 69 14 -44 5 -137 -21 -213 -41 -120
-168 -267 -316 -365 -158 -105 -332 -180 -633 -272 -262 -80 -389 -146 -795
-408 -670 -433 -1011 -569 -1396 -555 -107 4 -122 7 -182 36 -183 91 -320 388
-381 827 -8 61 -18 128 -21 150 -13 93 -13 602 0 743 34 355 99 631 197 842
46 101 110 202 120 192 4 -4 64 -158 133 -342z m-5587 -1190 c162 -573 273
-975 396 -1436 l103 -385 -18 -112 c-10 -62 -31 -197 -48 -302 -17 -104 -44
-271 -60 -370 -16 -99 -80 -488 -141 -865 -61 -377 -122 -752 -135 -835 -21
-131 -210 -1300 -296 -1825 -16 -102 -77 -477 -134 -835 -58 -357 -118 -731
-135 -830 -16 -99 -41 -250 -54 -335 -14 -85 -50 -306 -80 -490 -30 -184 -62
-386 -72 -447 -17 -113 -17 -113 -43 -107 -35 8 -67 46 -163 189 -88 134 -197
348 -253 500 -37 99 -87 281 -145 530 -16 72 -43 185 -58 251 l-29 122 85 23
c47 13 95 31 106 40 l21 17 -54 398 c-60 455 -75 569 -165 1289 -102 813 -126
1018 -126 1060 0 21 67 275 149 564 479 1687 927 3380 1157 4378 32 139 61
250 65 245 4 -4 61 -198 127 -432z m705 -2627 c585 -2344 891 -4035 933 -5161
l7 -182 51 -15 c28 -9 77 -18 109 -22 31 -3 57 -9 57 -12 0 -10 59 -422 65
-460 6 -31 5 -33 -10 -17 -38 37 -113 30 -146 -14 -23 -31 -26 -66 -34 -350
-3 -124 -7 -288 -10 -365 -3 -77 -7 -219 -10 -315 -3 -96 -10 -301 -15 -455
-5 -154 -10 -295 -10 -312 l0 -33 -279 0 -279 0 -19 33 c-91 153 -314 357
-593 544 -285 190 -840 480 -1050 548 -30 10 -58 19 -61 21 -4 2 -3 25 2 51 4
27 24 147 43 268 52 321 129 796 186 1150 28 171 60 364 70 430 22 141 48 303
165 1020 47 292 176 1086 286 1765 110 679 222 1370 249 1535 27 165 70 434
96 598 27 163 51 297 54 297 3 0 67 -246 143 -547z m7410 -1024 c20 -31 0 -63
-58 -93 -71 -37 -160 -132 -207 -221 -20 -39 -68 -169 -108 -290 -46 -142 -79
-226 -92 -238 -19 -16 -20 -24 -13 -100 7 -85 47 -341 114 -721 42 -239 43
-242 66 -421 42 -324 38 -577 -14 -846 -83 -431 -106 -697 -106 -1239 0 -452
11 -665 56 -1030 22 -188 63 -437 86 -525 14 -55 18 -121 8 -170 -2 -11 -4
-27 -4 -35 -1 -11 -14 -15 -52 -15 -50 0 -53 -2 -105 -58 -60 -65 -134 -183
-165 -267 -23 -62 -54 -203 -73 -330 l-12 -85 -1195 -3 -1194 -2 0 232 c-1
136 -6 263 -13 306 -14 84 -16 404 -3 572 5 63 9 180 8 260 -2 162 -12 194
-76 237 -17 12 -31 25 -31 30 4 28 280 364 412 501 274 283 569 655 922 1162
378 542 477 681 579 807 60 75 127 165 149 202 103 167 275 562 428 986 106
292 189 545 180 545 -5 0 -14 9 -20 19 -13 26 113 418 176 548 55 112 143 211
235 266 67 39 104 44 122 16z m-15348 -3895 c165 -4 301 -7 302 -9 5 -4 -169
-1211 -177 -1230 -7 -15 -9 -10 -9 25 -2 70 -18 113 -56 150 -34 33 -40 35
-118 38 -45 2 -127 -1 -183 -6 -116 -10 -139 -22 -178 -92 l-25 -45 3 40 c2
22 7 148 11 280 3 132 8 256 10 275 2 19 7 150 11 290 3 140 8 262 9 270 2 8
4 19 4 24 1 5 22 6 49 2 26 -4 182 -9 347 -12z m5788 -126 c9 -35 45 -187 81
-338 36 -151 79 -320 95 -375 68 -227 173 -451 309 -655 43 -63 78 -118 80
-121 2 -4 -73 -10 -165 -14 -278 -12 -310 -17 -351 -58 -30 -31 -36 -44 -40
-94 -5 -67 -23 -93 -64 -93 -16 0 -137 43 -268 96 l-240 97 0 96 c0 108 -21
306 -46 426 -8 44 -72 292 -140 551 -68 260 -124 473 -124 476 0 2 98 4 218 5
206 1 448 23 562 52 73 18 76 17 93 -51z m4010 -380 c-1 -40 -2 -148 -3 -241
l0 -167 -52 27 c-46 23 -68 28 -160 31 -129 5 -190 -11 -266 -69 -61 -46 -51
-70 -87 196 -14 105 -28 204 -31 221 l-6 31 189 7 c103 4 233 13 288 20 55 7
107 14 115 15 12 1 15 -12 13 -71z m2271 -324 c39 -39 85 -80 103 -91 l32 -19
-77 -100 -77 -99 -124 4 c-140 3 -154 7 -204 51 -27 23 -42 50 -62 110 -15 45
-23 85 -19 92 5 7 57 77 117 156 l109 143 66 -88 c36 -48 97 -120 136 -159z
m-8040 137 c94 -11 224 -23 289 -27 101 -6 117 -9 113 -23 -5 -17 -31 -141
-97 -456 -23 -110 -51 -240 -63 -290 l-21 -89 -220 -96 -220 -95 -106 0 c-101
0 -108 1 -180 37 -43 22 -93 57 -121 85 l-47 48 14 75 c8 41 30 167 50 280 46
260 104 579 110 606 4 20 5 20 166 -8 89 -15 239 -36 333 -47z m7530 -284 c28
-91 44 -123 76 -159 67 -76 108 -91 290 -99 168 -8 219 -21 241 -60 9 -17 10
-72 5 -218 -15 -407 -15 -651 0 -781 22 -177 14 -495 -14 -602 -25 -94 -45
-133 -77 -154 -22 -14 -33 -15 -88 -4 -176 34 -410 209 -532 399 -79 124 -607
1138 -625 1202 -16 56 3 108 58 160 121 112 578 429 618 429 7 0 28 -51 48
-113z m-1814 -25 c33 -22 78 -43 99 -47 51 -8 115 11 153 47 48 45 60 38 131
-69 202 -305 338 -716 363 -1094 l7 -96 -71 -70 c-130 -131 -297 -224 -488
-274 -77 -20 -112 -23 -264 -23 -157 0 -183 3 -255 25 -148 45 -267 127 -340
233 -34 49 -38 61 -38 118 0 97 13 575 18 648 2 36 7 180 11 320 3 140 8 257
9 259 2 2 21 -15 42 -37 69 -73 138 -70 203 8 75 89 143 112 292 99 57 -5 77
-12 128 -47z m-9750 -131 c9 -7 17 -37 21 -92 9 -100 33 -134 99 -134 35 0 47
7 98 58 l59 58 -1 -458 c-1 -314 3 -494 12 -573 19 -167 51 -394 68 -473 28
-137 13 -199 -67 -271 -77 -70 -113 -79 -521 -121 -105 -10 -381 -13 -503 -4
-343 25 -432 51 -489 143 -48 77 -47 132 8 316 61 208 171 533 241 710 75 193
248 542 325 658 58 88 80 105 80 61 0 -32 26 -74 55 -87 66 -30 101 -5 157
112 37 74 52 95 70 98 57 8 274 8 288 -1z m3300 -546 c148 -141 259 -195 402
-195 94 0 152 18 394 121 127 55 245 99 261 99 51 0 60 -22 82 -195 29 -233
36 -310 56 -597 6 -80 4 -88 -12 -88 -10 0 -58 -5 -108 -10 -150 -16 -182 -19
-385 -35 -466 -36 -700 -49 -1155 -65 -530 -18 -1809 -6 -1933 18 l-33 7 28
54 c34 69 136 173 229 233 146 95 376 198 699 313 l160 57 185 -191 c184 -190
208 -209 238 -179 31 31 13 58 -153 231 l-164 172 122 41 122 42 225 -224
c182 -181 230 -224 252 -224 27 0 48 23 48 51 0 7 -93 106 -207 221 -114 114
-205 209 -202 211 2 2 112 40 244 85 132 45 281 97 330 116 143 55 145 55 275
-69z m3272 -56 c111 -19 219 -64 521 -214 647 -325 1073 -651 1216 -932 25
-50 26 -74 6 -117 -32 -67 -62 -72 -420 -82 -651 -17 -906 -20 -1850 -19
-1152 0 -1067 -6 -1106 78 -16 37 -19 68 -19 267 0 342 30 588 96 785 49 147
88 205 139 205 11 0 140 -48 285 -106 238 -95 270 -106 313 -101 85 8 135 65
146 165 l6 57 45 6 c25 4 128 10 230 14 102 4 187 9 190 12 6 6 128 -5 202
-18z m9085 -237 c-4 -46 -8 -85 -9 -86 -2 -2 -61 -38 -132 -81 -100 -61 -139
-79 -176 -83 -52 -5 -108 18 -147 60 -22 23 -22 26 -12 143 7 66 13 121 14
123 2 2 99 6 216 9 118 3 216 7 217 9 2 1 11 0 19 -3 13 -5 15 -20 10 -91z
m-557 -231 c85 -98 186 -137 287 -112 26 7 103 46 169 87 161 98 168 98 272 2
108 -100 243 -185 449 -284 296 -142 360 -178 468 -265 80 -65 107 -106 108
-166 2 -63 -26 -118 -76 -151 -44 -29 -59 -30 -562 -46 -110 -3 -274 -9 -365
-12 -338 -12 -1014 -10 -1037 4 -35 20 -48 75 -47 207 2 200 52 470 108 585
42 86 135 210 157 210 10 0 41 -26 69 -59z m-4600 -444 c-18 -85 -60 -158
-136 -235 -138 -139 -319 -198 -624 -201 -80 -1 -181 3 -225 9 -233 32 -402
117 -459 232 -28 56 -32 118 -20 283 l6 80 42 -39 c329 -310 969 -281 1361 63
l60 53 3 -98 c1 -54 -2 -120 -8 -147z m-6003 -34 c-17 -141 -139 -281 -275
-312 -77 -18 -505 -60 -772 -76 -52 -3 -115 -8 -140 -10 -25 -3 -139 -7 -255
-11 -115 -3 -216 -8 -224 -10 -17 -5 -1065 -5 -1106 1 -16 2 -104 6 -195 10
-91 3 -187 8 -215 11 -27 2 -101 8 -163 14 -137 12 -195 38 -242 109 -33 49
-45 86 -55 175 l-7 58 104 -6 c300 -19 730 -26 1308 -22 355 3 665 7 690 10
25 3 115 7 200 11 162 6 213 9 475 25 193 12 287 19 340 25 22 3 81 7 130 11
50 3 140 11 200 18 61 6 132 13 159 14 l49 3 -6 -48z"/>
<path d="M33546 43989 c-393 -96 -696 -479 -696 -879 0 -197 58 -345 185 -475
195 -198 500 -240 800 -110 177 77 380 282 466 470 58 128 74 206 74 360 -1
126 -4 148 -28 222 -69 206 -226 354 -439 413 -96 26 -252 26 -362 -1z m345
-95 c193 -58 339 -213 378 -404 35 -168 -1 -370 -95 -526 -125 -207 -300 -341
-521 -399 -50 -13 -63 -13 -117 1 -139 36 -261 133 -328 260 -184 351 21 840
429 1026 55 24 153 54 189 57 6 1 35 -6 65 -15z"/>
<path d="M40360 35083 c-82 -6 -253 -34 -360 -59 -839 -195 -1519 -824 -1740
-1609 -58 -210 -75 -337 -74 -585 0 -250 16 -379 74 -583 223 -793 901 -1425
1745 -1627 229 -55 325 -65 615 -65 227 1 284 4 394 23 342 59 623 162 898
328 556 337 950 887 1068 1494 41 207 47 512 16 720 -96 631 -461 1188 -1022
1562 -326 217 -728 357 -1143 398 -95 9 -364 11 -471 3z m420 -374 c773 -70
1426 -541 1713 -1234 189 -457 164 -1023 -65 -1473 -287 -564 -842 -955 -1503
-1059 -153 -24 -489 -24 -637 0 -474 79 -863 278 -1178 603 -280 289 -453 626
-510 994 -6 41 -14 86 -16 100 -10 61 -3 349 11 447 113 759 689 1369 1480
1568 72 18 177 38 235 44 58 6 119 13 135 15 68 7 227 5 335 -5z"/>
<path d="M40428 34192 l-86 -3 3 -42 c1 -23 4 -95 6 -160 l3 -119 -84 -27
c-309 -99 -490 -312 -490 -576 0 -150 43 -250 154 -361 69 -68 97 -88 186
-131 119 -57 168 -75 365 -133 203 -60 300 -115 341 -192 22 -43 18 -129 -9
-169 -59 -88 -167 -124 -372 -122 -161 1 -274 21 -429 77 -55 20 -102 34 -104
31 -2 -2 -21 -80 -42 -172 -21 -92 -41 -180 -45 -194 -6 -24 -2 -28 44 -48
105 -45 330 -89 473 -92 42 -1 80 -4 86 -8 7 -5 21 -187 22 -298 0 -13 5 -21
13 -18 6 2 84 6 171 10 88 3 163 8 167 11 5 2 6 10 4 17 -2 7 -6 82 -9 168
l-7 156 53 12 c255 57 469 239 533 451 51 174 14 386 -92 512 -100 120 -223
187 -529 286 -333 109 -424 167 -424 269 0 54 20 94 63 127 60 46 112 58 262
63 157 6 256 -8 407 -57 l87 -28 15 67 c56 248 67 304 63 315 -12 29 -241 80
-412 91 -54 3 -100 7 -101 8 -1 1 -6 66 -10 145 l-7 143 -91 -3 c-50 -2 -130
-4 -178 -6z"/>
<path d="M41914 34838 c10 -7 67 -45 127 -84 516 -342 883 -862 1018 -1444 57
-247 71 -563 37 -805 -137 -953 -856 -1727 -1836 -1975 -131 -33 -259 -56
-375 -67 -126 -12 -490 -9 -600 5 -552 73 -1054 303 -1441 661 -39 36 -13 9
59 -62 130 -127 130 -127 111 -149 -10 -11 -41 -31 -69 -44 l-50 -24 -2603 0
c-2568 0 -2603 0 -2641 20 -46 23 -81 86 -81 146 0 81 68 181 154 227 l41 22
2468 3 2468 2 -43 50 -43 50 -2430 -2 -2430 -3 -57 -27 c-117 -54 -209 -175
-223 -292 -14 -109 43 -217 139 -269 l41 -22 2635 0 2635 0 56 26 c31 15 74
42 95 62 l39 35 125 -84 c599 -401 1357 -539 2075 -378 252 56 583 191 795
324 214 134 439 327 591 509 720 858 732 2053 31 2931 -195 244 -499 497 -757
630 -44 22 -71 35 -61 28z"/>
<path d="M25143 34561 c-141 -48 -248 -175 -274 -326 -10 -57 -9 -76 6 -131
20 -74 73 -142 139 -177 l41 -22 2345 0 2345 0 56 28 c157 77 259 238 247 391
-6 76 -44 153 -95 195 -80 66 109 61 -2442 61 -2202 -1 -2319 -2 -2368 -19z"/>
<path d="M34457 34569 c-54 -13 -93 -35 -144 -82 -87 -80 -125 -208 -89 -301
21 -54 81 -111 133 -126 27 -8 534 -10 1793 -8 l1755 3 50 25 c229 112 248
434 29 489 -54 14 -3469 14 -3527 0z"/>
<path d="M33000 33596 c-114 -25 -209 -100 -265 -212 -26 -52 -30 -70 -30
-144 0 -92 13 -129 64 -183 48 -53 97 -72 186 -72 71 0 88 4 147 33 82 40 158
121 190 202 30 77 31 189 1 246 -57 107 -168 156 -293 130z"/>
<path d="M34125 33556 c-107 -34 -195 -109 -242 -205 -23 -47 -28 -69 -28
-136 0 -70 4 -87 29 -133 16 -28 44 -63 62 -77 77 -59 -60 -55 2124 -55 1822
0 2008 1 2014 16 3 9 6 31 6 50 l0 34 -2017 0 -2016 0 -37 24 c-96 64 -93 213
7 313 21 21 57 48 78 58 39 20 77 20 2054 25 l2014 5 13 35 c7 19 13 41 13 48
1 18 -4016 16 -4074 -2z"/>
<path d="M24575 33512 c-126 -44 -242 -150 -290 -268 -40 -97 -42 -214 -4
-294 50 -108 128 -168 244 -189 42 -8 840 -11 2715 -11 2884 0 2726 -3 2840
55 101 51 195 158 230 261 67 194 -8 380 -180 445 -49 18 -125 19 -2778 19
-2561 -1 -2730 -2 -2777 -18z m5530 -95 c90 -41 130 -107 129 -217 0 -62 -5
-85 -28 -130 -38 -76 -116 -153 -190 -187 l-61 -28 -2720 0 -2720 0 -42 22
c-224 120 -115 486 164 552 22 5 1186 8 2733 8 2571 -2 2697 -3 2735 -20z"/>
<path d="M32850 32489 c-75 -15 -145 -56 -203 -119 -71 -76 -101 -149 -101
-245 -1 -253 289 -340 494 -149 95 89 144 245 111 347 -40 120 -171 192 -301
166z"/>
<path d="M33954 32470 c-111 -22 -225 -113 -270 -217 -65 -145 -18 -304 108
-367 l52 -26 2228 0 2227 0 -18 43 -18 42 -2199 5 c-2185 5 -2199 5 -2234 25
-144 83 -70 336 114 390 43 13 322 15 2116 15 l2067 0 -10 50 -10 50 -2056 -1
c-1131 -1 -2074 -5 -2097 -9z"/>
<path d="M32560 31361 c-127 -39 -232 -150 -265 -279 -19 -74 -14 -127 21
-200 100 -207 423 -158 546 83 35 68 47 164 29 230 -28 106 -125 176 -240 174
-37 0 -77 -4 -91 -8z"/>
<path d="M33543 30266 c-204 -64 -321 -292 -238 -462 14 -29 43 -67 63 -84 78
-65 -120 -60 2742 -58 l2605 3 63 29 c94 43 175 134 203 227 45 147 -9 279
-136 336 -38 17 -160 18 -2650 20 -2140 1 -2618 -1 -2652 -11z m5277 -106 c87
-44 105 -168 40 -269 -36 -56 -76 -90 -138 -114 -39 -16 -231 -17 -2635 -17
-2504 0 -2594 1 -2627 19 -42 22 -75 68 -84 116 -17 90 59 215 159 261 l50 24
2598 0 c2584 0 2598 0 2637 -20z"/>
<path d="M32409 30257 c-284 -81 -380 -467 -145 -582 51 -25 64 -27 134 -23
100 6 159 34 238 113 117 116 143 274 65 397 -53 84 -182 126 -292 95z"/>
<path d="M41363 29035 c-641 -81 -1204 -350 -1644 -785 -411 -407 -661 -904
-734 -1463 -20 -157 -20 -458 0 -612 112 -852 646 -1585 1450 -1991 266 -134
515 -215 830 -270 204 -36 595 -45 810 -19 651 78 1220 350 1665 795 409 410
655 915 724 1490 18 148 14 466 -8 615 -85 566 -338 1053 -763 1465 -425 414
-936 665 -1560 766 -140 22 -619 28 -770 9z m627 -421 c556 -68 1037 -300
1419 -685 635 -641 798 -1582 411 -2375 -276 -563 -800 -989 -1439 -1169 -372
-104 -822 -111 -1216 -18 -851 201 -1520 856 -1699 1665 -13 62 -28 140 -32
173 -3 33 -8 69 -11 80 -6 31 -5 337 2 391 36 294 106 523 231 762 284 542
827 960 1449 1117 111 28 270 55 405 69 86 8 375 2 480 -10z"/>
<path d="M41635 28029 c-71 -3 -147 -7 -168 -8 l-38 -1 6 -102 c3 -57 6 -138
8 -181 l2 -79 -105 -34 c-261 -86 -443 -246 -517 -456 -35 -96 -39 -281 -9
-368 88 -256 284 -396 736 -525 274 -79 396 -146 436 -241 24 -56 18 -135 -12
-180 -32 -46 -44 -57 -106 -89 -75 -39 -159 -55 -301 -55 -190 0 -367 33 -541
100 -43 17 -81 28 -84 25 -5 -5 -101 -419 -102 -438 -1 -22 201 -86 348 -112
77 -13 125 -18 300 -29 23 -2 44 -5 47 -7 2 -3 7 -81 11 -174 3 -94 8 -173 11
-178 2 -4 46 -5 96 -2 51 3 140 8 199 11 l106 6 -3 51 c-2 29 -7 116 -10 194
l-6 142 43 11 c178 44 339 131 453 245 127 127 183 251 192 425 14 296 -122
506 -419 645 -40 19 -145 57 -233 85 -458 146 -555 205 -555 335 0 100 70 170
200 199 83 19 292 22 395 6 81 -12 235 -53 290 -76 20 -8 39 -14 41 -12 5 5
94 410 94 428 0 36 -265 97 -467 107 -68 3 -123 7 -123 7 0 1 -3 71 -6 156 -3
85 -7 161 -9 168 -3 7 -18 11 -37 10 -18 -1 -91 -5 -163 -9z"/>
<path d="M31460 23480 c-155 -28 -293 -127 -359 -259 -25 -48 -25 -49 -201
-1021 -66 -366 -129 -712 -140 -770 -11 -58 -31 -170 -45 -250 -59 -331 -515
-2849 -524 -2895 -10 -45 -260 -1429 -281 -1550 -5 -27 -68 -373 -139 -769
-72 -395 -131 -742 -131 -770 0 -161 119 -276 306 -295 43 -5 201 -9 349 -10
291 -2 324 3 427 55 71 36 170 133 202 199 23 48 80 349 412 2173 212 1164
391 2153 399 2197 8 44 43 240 79 435 36 195 72 393 80 440 8 47 124 681 257
1410 132 729 241 1350 241 1381 0 137 -107 257 -257 288 -56 12 -620 21 -675
11z"/>
<path d="M29450 22474 c-104 -22 -205 -77 -281 -154 -123 -125 -171 -290 -83
-290 24 0 54 33 54 61 0 29 51 113 97 161 55 56 137 102 224 124 56 14 104 16
366 10 166 -4 314 -11 330 -15 91 -26 158 -85 189 -166 23 -60 21 -69 -89
-680 -47 -258 -138 -760 -202 -1115 -64 -355 -154 -854 -200 -1110 -46 -256
-127 -706 -180 -1000 -53 -294 -118 -656 -145 -805 -123 -682 -211 -1167 -224
-1245 -115 -655 -189 -1036 -208 -1078 -34 -71 -115 -147 -205 -190 l-78 -37
-335 1 c-212 1 -350 6 -377 13 -54 15 -132 68 -159 109 -13 18 -27 55 -33 82
-10 46 2 124 149 943 89 490 185 1029 215 1197 30 168 59 330 65 360 15 79 70
385 135 749 31 173 54 325 51 337 -12 46 -78 39 -90 -10 -5 -20 -168 -923
-291 -1611 -68 -381 -256 -1426 -295 -1640 -22 -121 -40 -248 -40 -282 0 -117
59 -219 161 -280 91 -54 138 -61 476 -69 264 -5 318 -4 376 10 133 31 258 114
324 213 48 71 61 102 74 167 13 64 210 1159 394 2181 52 292 117 654 145 805
27 151 75 415 105 585 31 171 80 445 110 610 30 165 93 514 140 775 118 657
153 852 170 945 132 717 176 984 170 1032 -18 146 -126 259 -283 298 -85 21
-634 28 -722 9z"/>
<path d="M21425 17761 c-91 -26 -178 -77 -245 -144 -95 -95 -113 -142 -160
-417 -23 -129 -50 -284 -61 -345 -10 -60 -32 -186 -49 -280 -16 -93 -75 -429
-130 -745 -56 -316 -101 -602 -101 -636 0 -86 31 -163 90 -223 103 -105 157
-118 548 -127 266 -5 317 -4 377 10 182 43 333 175 384 336 21 64 173 965 167
987 -7 30 -51 41 -73 20 -11 -11 -35 -127 -79 -379 -107 -618 -103 -598 -136
-661 -39 -74 -102 -130 -197 -176 l-75 -36 -336 1 c-287 1 -343 4 -386 18
-100 33 -172 109 -187 198 -7 40 -4 63 109 703 41 231 106 605 145 830 123
703 127 722 156 773 71 120 205 200 361 215 29 3 57 8 63 12 14 9 13 58 -2 73
-17 17 -112 14 -183 -7z"/>
<path d="M35475 21480 c-684 -5 -691 -5 -749 -27 -131 -50 -239 -134 -314
-247 -87 -131 -80 -85 -217 -1330 -69 -621 -125 -1149 -125 -1173 0 -112 56
-250 133 -331 68 -71 175 -126 277 -143 79 -13 8079 -13 8150 0 81 15 111 25
188 66 137 72 256 212 301 353 26 84 264 2204 264 2352 -1 107 -21 179 -73
261 -64 99 -189 187 -297 209 -52 10 -6349 19 -7538 10z m857 -302 c85 -117
312 -429 504 -693 331 -453 1084 -1488 1421 -1950 l153 -210 -1942 -3 c-2145
-2 -2004 -6 -2117 61 -98 59 -167 171 -177 289 -4 45 29 375 115 1158 66 602
125 1118 131 1146 26 123 110 246 217 316 81 54 142 78 220 88 32 4 342 8 689
9 l631 1 155 -212z m1214 -514 c297 -399 640 -862 762 -1028 123 -165 286
-384 362 -486 75 -102 244 -329 375 -505 l238 -320 -339 -3 c-187 -2 -357 0
-379 3 -40 6 -43 11 -336 413 -561 771 -1912 2627 -1922 2640 -7 9 63 12 346
12 l355 0 538 -726z m491 271 c185 -247 687 -922 1116 -1500 429 -577 791
-1065 805 -1082 l24 -33 -288 0 -289 1 -190 257 c-104 141 -267 361 -361 487
-144 194 -639 861 -1264 1705 -80 107 -214 287 -297 400 -84 113 -153 208
-153 213 0 4 127 6 281 5 l282 -3 334 -450z m1815 -720 c477 -643 986 -1329
1130 -1524 145 -195 265 -358 267 -364 3 -9 -1144 -6 -1152 3 -3 3 -444 597
-982 1320 -538 723 -1046 1406 -1129 1518 -83 112 -153 207 -154 213 -3 6 206
8 574 7 l579 -3 867 -1170z m3087 1165 c138 -18 246 -91 301 -203 61 -124 64
-60 -74 -1312 -69 -621 -131 -1148 -137 -1170 -34 -123 -146 -258 -260 -313
-127 -62 -124 -62 -789 -62 -581 0 -606 1 -617 19 -6 10 -516 699 -1132 1530
-617 831 -1121 1514 -1121 1516 0 10 3755 4 3829 -5z"/>
<path d="M34241 17319 c-114 -22 -243 -110 -310 -209 -59 -90 -77 -163 -106
-435 -14 -132 -44 -400 -66 -595 -43 -378 -44 -420 -7 -517 29 -80 130 -180
213 -214 l60 -24 654 -3 c436 -2 672 1 706 8 121 25 262 125 322 228 53 91 62
132 103 504 22 200 47 419 55 488 44 378 45 460 3 551 -51 109 -140 182 -263
214 -50 13 -153 15 -690 14 -346 -1 -650 -5 -674 -10z m1405 -121 c53 -28 103
-77 129 -127 31 -62 36 -115 20 -254 -12 -111 -73 -667 -91 -832 -23 -222 -36
-290 -62 -344 -38 -77 -108 -146 -189 -184 l-68 -32 -661 -3 c-648 -2 -663 -2
-717 18 -100 37 -171 130 -183 238 -5 43 101 1069 126 1221 19 113 80 206 176
267 101 65 81 63 809 61 l660 -2 51 -27z"/>
<path d="M36568 17315 c-114 -28 -209 -93 -286 -194 -74 -98 -78 -119 -138
-648 -87 -780 -86 -770 -73 -833 26 -129 118 -242 235 -291 l59 -24 654 -3
c451 -2 671 1 708 8 77 16 182 72 240 128 100 96 137 180 158 360 64 553 117
1059 117 1122 0 164 -92 298 -249 362 l-58 23 -655 2 c-534 1 -666 -1 -712
-12z m1405 -108 c91 -42 160 -139 172 -239 3 -24 -25 -318 -63 -655 -66 -582
-70 -614 -97 -670 -37 -75 -114 -151 -190 -189 l-60 -29 -655 -3 c-449 -2
-669 1 -700 8 -100 24 -189 116 -211 217 -12 58 -15 22 71 808 28 248 55 469
61 493 25 91 108 190 199 237 85 44 84 44 775 42 611 -2 663 -3 698 -20z"/>
<path d="M38908 17315 c-84 -21 -154 -60 -221 -124 -124 -118 -145 -180 -182
-546 -3 -33 -8 -76 -10 -95 -3 -19 -25 -217 -49 -440 -49 -450 -49 -469 4
-577 49 -99 149 -177 262 -203 26 -6 296 -10 678 -10 541 0 645 2 695 15 212
55 357 227 379 450 2 28 32 298 65 600 33 303 58 568 55 590 -13 113 -67 208
-158 276 -101 76 -72 74 -806 76 -534 1 -666 -1 -712 -12z m1382 -102 c64 -20
140 -87 168 -146 31 -66 35 -120 18 -272 -86 -795 -119 -1067 -131 -1104 -35
-105 -108 -187 -214 -238 l-56 -28 -659 -3 c-743 -3 -726 -4 -810 69 -26 23
-56 59 -66 80 -45 88 -45 89 29 756 66 600 69 624 97 680 52 103 156 187 261
212 21 5 324 9 674 10 571 1 642 -1 689 -16z"/>
<path d="M41236 17314 c-90 -22 -169 -69 -240 -144 -91 -97 -124 -174 -141
-330 -3 -30 -24 -219 -46 -420 -21 -201 -44 -401 -49 -445 -12 -105 -22 -212
-25 -255 -7 -149 101 -315 243 -372 l57 -23 685 0 685 0 58 24 c136 54 251
166 297 288 21 56 38 192 145 1169 17 157 12 211 -29 300 -48 105 -155 188
-274 213 -85 18 -1290 14 -1366 -5z m1420 -116 c57 -30 117 -91 138 -141 33
-80 38 -18 -100 -1277 -17 -149 -105 -269 -249 -336 -38 -18 -81 -19 -699 -22
-565 -2 -666 -1 -711 12 -95 28 -182 129 -199 231 -7 42 114 1188 135 1277 22
93 105 195 199 243 85 44 84 44 775 42 l660 -2 51 -27z"/>
<path d="M33910 14831 c-86 -28 -139 -59 -203 -120 -62 -59 -118 -149 -136
-218 -21 -79 -143 -1214 -138 -1289 9 -153 108 -281 262 -340 47 -17 90 -19
685 -21 369 -1 660 2 695 8 176 28 348 183 394 355 13 49 141 1198 141 1265 0
157 -112 307 -268 358 -61 20 -82 21 -720 20 -601 0 -662 -2 -712 -18z m1415
-98 c66 -22 145 -100 168 -167 22 -64 21 -117 -2 -329 -11 -94 -23 -201 -26
-237 -4 -36 -8 -76 -10 -90 -2 -14 -20 -169 -39 -345 -20 -176 -41 -336 -47
-355 -45 -131 -167 -236 -304 -261 -33 -6 -301 -9 -687 -7 -697 3 -652 -1
-744 66 -28 20 -52 51 -73 93 -37 74 -39 117 -16 326 119 1077 114 1034 145
1101 54 115 175 205 297 220 31 4 334 6 672 4 539 -2 622 -4 666 -19z"/>
<path d="M36250 14831 c-160 -52 -280 -167 -330 -317 -24 -72 -142 -1118 -144
-1269 0 -82 4 -110 22 -157 29 -72 109 -161 175 -194 100 -51 135 -54 772 -54
340 0 620 5 660 10 179 26 337 157 396 327 25 75 153 1218 146 1313 -9 127
-70 232 -174 298 -96 62 -101 62 -818 61 -595 0 -655 -2 -705 -18z m1431 -103
c50 -22 116 -84 139 -128 22 -42 38 -123 33 -165 -136 -1240 -131 -1202 -159
-1262 -40 -85 -110 -153 -197 -194 l-72 -34 -665 0 -665 0 -55 26 c-102 47
-159 128 -167 234 -3 34 9 181 26 340 17 154 33 300 36 325 32 299 66 582 74
608 39 133 181 253 319 270 31 4 340 5 686 2 559 -4 635 -7 667 -22z"/>
<path d="M38601 14834 c-158 -43 -291 -170 -341 -326 -13 -43 -36 -210 -70
-528 -54 -504 -56 -521 -69 -625 -20 -159 0 -261 67 -350 47 -62 106 -107 179
-137 l58 -23 670 0 670 0 63 23 c152 55 276 179 317 316 9 28 29 173 45 321
17 149 32 286 34 305 40 325 67 618 64 682 -8 144 -103 276 -236 330 l-57 23
-670 2 c-562 2 -679 0 -724 -13z m1422 -107 c102 -43 170 -152 169 -272 -1
-38 -30 -330 -66 -647 -57 -517 -67 -583 -89 -632 -30 -65 -102 -145 -162
-181 -95 -55 -107 -56 -802 -53 l-638 3 -53 24 c-100 45 -172 155 -172 262 0
31 35 370 55 532 2 20 20 182 40 360 19 177 40 338 47 357 29 92 111 185 209
237 l54 28 640 5 c352 3 661 2 686 -2 25 -3 62 -13 82 -21z"/>
<path d="M40920 14831 c-81 -26 -130 -54 -190 -108 -68 -61 -122 -144 -143
-220 -13 -47 -52 -361 -83 -673 -3 -30 -7 -66 -9 -80 -22 -145 -56 -507 -52
-550 16 -175 152 -321 327 -349 75 -13 1239 -12 1315 0 124 20 242 94 320 201
57 76 81 154 100 313 83 722 116 1057 112 1129 -10 145 -102 274 -235 328
l-57 23 -675 2 c-625 2 -679 1 -730 -16z m1412 -97 c62 -20 135 -86 164 -149
29 -61 31 -143 8 -337 -8 -73 -21 -191 -29 -263 -76 -703 -84 -758 -115 -822
-52 -104 -161 -188 -278 -214 -31 -6 -277 -9 -688 -7 l-639 3 -50 27 c-69 36
-128 103 -150 168 -14 42 -16 71 -12 139 5 68 59 573 82 766 3 22 14 121 25
220 23 204 37 257 87 322 48 62 78 88 148 126 l60 32 615 5 c689 6 706 5 772
-16z"/>
<path d="M33658 12364 c-83 -19 -148 -55 -218 -120 -65 -61 -100 -113 -131
-194 -27 -71 -141 -1085 -143 -1265 -1 -121 1 -134 26 -187 52 -112 159 -195
282 -217 39 -7 277 -11 681 -11 674 0 677 0 788 56 117 60 210 170 247 293 11
36 26 129 34 206 9 77 39 349 67 605 56 504 56 519 9 627 -23 53 -101 137
-156 169 -87 51 -128 54 -804 53 -493 -1 -637 -4 -682 -15z m1413 -112 c92
-45 158 -136 166 -231 4 -41 -119 -1196 -133 -1260 -23 -97 -117 -207 -222
-258 l-57 -28 -680 0 -680 0 -45 23 c-57 30 -106 77 -131 125 -41 79 -41 103
12 587 84 775 85 784 116 847 49 99 137 173 248 209 31 10 186 13 700 11 l660
-2 46 -23z"/>
<path d="M36003 12366 c-162 -40 -313 -179 -359 -330 -17 -57 -144 -1186 -144
-1282 0 -156 97 -295 248 -356 l57 -23 653 -3 c715 -3 714 -3 832 56 83 41
173 135 215 223 37 79 46 124 70 359 8 80 21 204 30 275 55 482 76 706 72 745
-3 25 -16 72 -28 105 -30 82 -129 182 -214 216 l-60 24 -660 2 c-504 1 -672
-1 -712 -11z m1408 -112 c92 -43 158 -134 166 -233 3 -34 -21 -291 -61 -653
-52 -467 -71 -609 -87 -652 -31 -80 -114 -167 -197 -208 l-67 -33 -680 0 -680
0 -51 27 c-53 28 -103 77 -129 127 -33 64 -32 124 2 441 104 952 99 918 132
985 49 100 140 178 244 211 33 10 176 13 702 11 650 -2 661 -2 706 -23z"/>
<path d="M38340 12364 c-81 -21 -152 -59 -210 -111 -110 -99 -151 -193 -174
-399 -8 -76 -33 -305 -56 -509 -22 -203 -44 -401 -49 -440 -5 -38 -8 -108 -7
-155 1 -73 6 -95 33 -152 35 -75 100 -146 162 -177 97 -50 113 -51 776 -51
402 0 642 4 681 11 171 31 329 172 378 338 23 79 149 1220 143 1303 -11 162
-127 300 -292 342 -86 23 -1300 23 -1385 0z m1378 -99 c75 -23 131 -70 169
-144 37 -70 41 -117 23 -271 -5 -47 -35 -312 -66 -590 -52 -478 -57 -508 -84
-566 -36 -75 -118 -155 -197 -192 l-58 -27 -680 0 -680 0 -41 22 c-106 56
-164 149 -164 259 0 50 29 337 75 739 3 28 17 151 31 274 28 256 40 296 120
382 55 58 118 98 183 115 34 9 211 13 682 13 542 1 643 -1 687 -14z"/>
<path d="M40665 12316 c-128 -41 -227 -126 -282 -241 -31 -67 -35 -86 -63
-336 -55 -498 -185 -1679 -255 -2319 -3 -25 -14 -126 -25 -225 -11 -99 -22
-200 -25 -225 -3 -25 -21 -189 -41 -365 -21 -188 -34 -345 -31 -381 10 -139
102 -253 238 -295 57 -18 99 -19 693 -19 686 0 694 1 797 56 73 40 147 120
185 199 34 73 41 109 69 365 8 74 39 362 70 640 30 278 58 530 61 560 3 30 7
66 9 80 2 14 18 149 34 300 17 151 69 626 117 1055 58 530 84 802 81 850 -8
125 -72 222 -185 277 l-67 33 -670 2 c-522 2 -679 -1 -710 -11z"/>
<path d="M33434 9880 c-120 -18 -204 -62 -291 -152 -108 -114 -122 -157 -163
-533 -16 -154 -32 -298 -35 -319 -35 -281 -66 -611 -61 -656 7 -62 49 -159 91
-208 40 -47 103 -88 173 -111 60 -20 81 -21 720 -21 571 0 666 2 713 16 108
31 207 104 268 195 68 102 79 144 112 452 17 155 46 413 64 572 41 358 41 455
2 540 -45 97 -127 171 -232 210 -47 18 -92 19 -680 21 -346 1 -653 -1 -681 -6z
m1311 -105 c87 -23 143 -68 184 -148 30 -58 34 -75 33 -134 -1 -38 -31 -330
-66 -650 -61 -544 -67 -585 -92 -640 -35 -74 -118 -156 -191 -191 l-58 -27
-669 -3 c-745 -3 -725 -4 -805 64 -52 45 -91 120 -98 188 -4 39 65 733 92 931
2 17 9 77 15 135 22 213 41 272 113 355 46 53 137 106 206 121 40 9 230 13
666 13 519 1 620 -1 670 -14z"/>
<path d="M35780 9880 c-114 -15 -187 -49 -274 -130 -116 -108 -148 -188 -171
-440 -4 -36 -8 -76 -10 -90 -3 -14 -20 -173 -40 -355 -20 -181 -43 -392 -51
-469 -13 -109 -14 -150 -5 -194 26 -132 101 -229 219 -285 l67 -32 675 -3
c649 -2 677 -2 740 17 149 46 270 161 321 308 11 30 26 114 35 186 8 73 16
150 19 172 3 22 23 207 45 410 22 204 42 385 46 404 3 19 6 69 6 111 0 175
-98 313 -267 375 -46 18 -95 19 -670 21 -341 1 -649 -2 -685 -6z m1350 -116
c61 -29 105 -68 135 -118 49 -83 49 -101 -6 -601 -84 -778 -84 -781 -119 -851
-36 -74 -110 -146 -188 -182 l-57 -27 -670 -3 c-737 -3 -706 -5 -794 58 -51
37 -98 119 -106 185 -8 63 119 1230 140 1295 43 127 163 232 299 260 23 4 329
7 681 7 629 -2 641 -2 685 -23z"/>
<path d="M38117 9880 c-193 -25 -356 -168 -411 -360 -8 -30 -27 -167 -41 -305
-14 -137 -39 -365 -55 -505 -16 -140 -32 -284 -35 -320 -4 -36 -8 -78 -11 -93
-7 -43 15 -145 43 -204 33 -71 104 -140 183 -177 l65 -31 675 -3 c649 -2 677
-2 740 17 150 46 272 163 325 311 9 25 34 199 55 395 22 193 42 370 44 395 59
513 58 503 41 578 -20 84 -48 135 -104 192 -58 58 -142 98 -229 110 -80 10
-1202 10 -1285 0z m1347 -113 c94 -42 156 -118 176 -212 12 -56 13 -42 -81
-890 -21 -198 -42 -373 -45 -390 -17 -83 -101 -195 -182 -242 -93 -55 -73 -53
-783 -53 -643 0 -662 0 -707 20 -66 29 -108 64 -137 114 -53 91 -53 94 19 746
37 327 69 609 72 625 27 133 165 266 304 294 25 5 333 8 685 8 590 -2 643 -3
679 -20z"/>
<path d="M21258 8509 c-24 -13 -24 -65 0 -78 9 -5 92 -17 184 -27 179 -19 198
-16 198 30 0 42 -13 47 -181 66 -192 23 -179 22 -201 9z"/>
<path d="M18842 8778 c-7 -7 -12 -21 -12 -33 0 -44 7 -45 355 -45 348 0 355 1
355 45 0 44 -7 45 -355 45 -244 0 -334 -3 -343 -12z"/>
<path d="M18907 8462 c-22 -24 -21 -38 3 -62 19 -19 33 -20 340 -20 307 0 321
1 340 20 25 25 25 42 2 63 -17 15 -55 17 -344 17 -302 0 -326 -1 -341 -18z"/>
<path d="M8822 8068 c-19 -19 -15 -66 7 -78 25 -13 600 -14 634 -1 30 12 39
43 20 70 -14 20 -22 21 -332 21 -233 0 -320 -3 -329 -12z"/>
<path d="M8568 7490 c-19 -12 -23 -46 -9 -68 10 -16 82 -36 241 -64 105 -19
161 -22 350 -22 236 0 332 11 474 54 73 23 91 39 82 74 -8 34 -37 40 -99 22
-148 -42 -227 -51 -467 -50 -214 0 -247 3 -370 27 -74 15 -146 30 -160 32 -14
3 -33 0 -42 -5z"/>
<path d="M15872 8368 c-22 -22 -13 -56 21 -82 54 -40 701 -462 720 -469 32
-12 59 10 55 46 -3 29 -26 47 -373 274 -203 133 -379 243 -390 243 -12 0 -26
-5 -33 -12z"/>
<path d="M17310 7499 c-52 -4 -124 -10 -160 -13 -134 -12 -620 -21 -1065 -21
-417 1 -1014 12 -1090 21 -16 1 -81 4 -143 5 -120 1 -142 -6 -142 -46 0 -47 8
-49 500 -65 692 -23 1684 -16 2020 14 30 3 93 8 140 12 47 3 93 10 103 15 24
13 23 65 -2 79 -21 11 -22 11 -161 -1z"/>
<path d="M25422 7668 c-141 -98 -162 -115 -162 -139 0 -33 23 -53 53 -45 13 3
90 52 173 109 119 82 150 108 152 129 3 26 -20 58 -42 58 -6 0 -85 -50 -174
-112z"/>
<path d="M28885 44062 c-262 -90 -382 -377 -265 -629 87 -187 300 -293 498
-248 197 46 334 209 347 414 13 210 -117 400 -316 462 -77 24 -196 25 -264 1z
m259 -103 c77 -28 148 -96 188 -177 30 -60 33 -75 33 -157 0 -82 -3 -97 -33
-157 -104 -212 -369 -262 -542 -102 -82 76 -114 151 -115 264 0 75 4 93 31
150 39 81 91 134 169 171 77 37 184 40 269 8z"/>
<path d="M22932 43788 c-7 -7 -12 -23 -12 -37 0 -31 179 -359 203 -373 24 -12
67 15 67 43 0 23 -176 348 -198 367 -20 15 -45 15 -60 0z"/>
<path d="M37870 43746 c-30 -37 -10 -56 259 -248 566 -405 1055 -803 1546
-1258 350 -325 830 -825 1150 -1197 65 -77 84 -93 107 -93 39 0 58 39 36 72
-8 13 -86 104 -173 203 -781 892 -1705 1720 -2693 2413 -172 120 -207 137
-232 108z"/>
<path d="M23620 43500 c-184 -101 -205 -117 -195 -149 12 -38 41 -45 88 -21
141 73 317 173 328 186 19 23 0 68 -31 72 -16 1 -83 -30 -190 -88z"/>
<path d="M39440 43360 c-16 -30 -5 -52 43 -91 23 -18 119 -99 212 -180 870
-748 1695 -1624 2340 -2484 70 -93 136 -176 146 -184 15 -11 25 -11 44 -3 44
20 32 54 -62 180 -673 907 -1532 1819 -2462 2615 -205 176 -236 193 -261 147z"/>
<path d="M22866 43085 c-93 -51 -174 -101 -179 -110 -15 -28 8 -65 39 -65 37
0 371 185 379 210 10 30 -12 60 -43 60 -15 -1 -103 -43 -196 -95z"/>
<path d="M23337 43042 c-10 -10 -17 -24 -17 -30 0 -22 189 -357 209 -371 18
-11 24 -11 46 3 14 9 25 24 25 34 0 19 -172 336 -197 365 -21 22 -46 22 -66
-1z"/>
<path d="M18613 42503 c-11 -10 -46 -92 -78 -183 -226 -645 -586 -1410 -948
-2020 -434 -730 -951 -1423 -1498 -2008 -188 -202 -259 -281 -259 -292 0 -14
37 -50 51 -50 27 0 322 311 574 605 782 911 1434 1954 1901 3041 119 278 334
843 334 878 0 14 -36 46 -51 46 -4 0 -16 -8 -26 -17z"/>
<path d="M17533 42383 c-11 -10 -39 -70 -63 -133 -368 -984 -1061 -2151 -1915
-3225 -983 -1236 -2321 -2540 -3615 -3524 -74 -57 -139 -109 -143 -117 -13
-23 2 -53 29 -60 32 -8 72 19 319 211 973 758 2009 1728 2826 2646 1075 1210
1888 2421 2406 3589 82 185 233 561 233 581 0 18 -31 49 -47 49 -6 0 -20 -8
-30 -17z"/>
<path d="M7773 19971 c-195 -50 -331 -259 -295 -454 33 -177 165 -309 332
-334 174 -26 343 65 418 225 24 51 27 69 27 167 0 99 -3 116 -27 168 -37 79
-117 160 -196 199 -53 26 -77 32 -145 34 -45 2 -96 -1 -114 -5z m226 -120
c101 -52 165 -159 165 -276 -2 -276 -327 -403 -513 -200 -190 209 -17 546 260
504 26 -4 65 -17 88 -28z"/>
</g>
</svg>
